M48
;Layer_Color=9474304
;FILE_FORMAT=4:4
METRIC,LZ
;TYPE=PLATED
T1F00S00C0.3000
T2F00S00C0.8000
T3F00S00C0.9000
T4F00S00C1.0000
;TYPE=NON_PLATED
T5F00S00C3.6000
%
T01
X00333999Y00093248
X00362Y001645
Y001885
Y002125
X00386375
Y001885
Y001645
X0041075
Y001885
Y002125
X00274749Y0023925
X002105Y00240752
X00226761Y0020851
X00148751Y0009325
X00227749Y0027225
X0024375
X002565Y0032425
X00221Y00329
X0022Y00375
X00193Y0037225
X00199248Y00411
X00210248
X00204248Y00449
X00189248
X00159998Y0048675
X001715Y005175
Y0054575
Y00574
Y0060225
X002325Y0062025
X002475Y0062025
X00265Y005685
Y005431
Y005295
X00244
X00231Y0051725
X0021775Y00505
X00285498Y004671
X0027625Y00394749
X002565
X0029325Y0034875
X001435Y0039825
X0006725Y0039825
X00310498Y0037615
X00309Y0045825
X003085Y005175
X003085Y00545751
Y00574
X003085Y0060225
X0030725Y00258
X002475Y0065225
X002325Y0065225
Y0068425
X002475Y0068425
Y0071625
X002325Y0071625
T02
X00310498Y00351851
Y00400651
T03
X00035398Y00245501
Y002709
Y00296301
Y00321701
Y003471
Y003725
X00111598
Y003471
Y00321701
Y00296301
Y002709
Y00245501
T04
X000544Y00159
Y001844
X000798
X001052
Y00159
X000798
X00182649Y0011525
X00220749
X00258849
X00296949
Y0006525
X00258849
X00220749
X00182649
X00111998Y0042425
Y0046235
Y0050045
Y0053855
Y0057665
Y0061475
X00061998
Y0057665
Y0053855
Y0050045
Y0046235
Y0042425
X00367998Y0042425
Y0046235
Y0050045
Y0053855
Y0057665
Y0061475
X00417998
Y0057665
Y0053855
Y0050045
Y0046235
Y0042425
Y0065285
Y0069095
X00367998
Y0065285
X00111998Y0065285
Y0069095
X00061998
Y0065285
T05
X00417998Y0009
X00061998
X00418Y0078025
X00062
M30
