%FSLAX44Y44*%
%MOMM*%
G71*
G01*
G75*
G04 Layer_Physical_Order=1*
G04 Layer_Color=255*
%ADD10R,2.3000X0.6000*%
%ADD11R,1.0000X0.9500*%
%ADD12R,1.1000X0.9500*%
%ADD13R,0.9500X1.0000*%
%ADD14R,0.6000X2.2000*%
%ADD15R,0.9500X1.1000*%
%ADD16R,4.6500X2.3000*%
%ADD17R,0.9000X1.0000*%
%ADD18R,1.1000X1.3500*%
%ADD19R,1.6000X3.0000*%
%ADD20R,6.7000X6.7000*%
%ADD21R,1.9500X1.2500*%
%ADD22R,0.5500X1.7500*%
%ADD23R,1.7500X0.5500*%
%ADD24R,1.6000X1.8000*%
%ADD25R,1.0000X0.9000*%
%ADD26C,0.3000*%
%ADD27C,0.5000*%
%ADD28C,1.0000*%
%ADD29C,3.6000*%
%ADD30C,1.5000*%
%ADD31R,1.5000X1.5000*%
%ADD32C,1.7000*%
%ADD33R,1.7000X1.7000*%
%ADD34R,1.6000X1.6000*%
%ADD35R,1.6000X1.6000*%
%ADD36C,0.8000*%
G36*
X476941Y3059D02*
X3059D01*
Y836941D01*
X476941D01*
Y3059D01*
D02*
G37*
%LPC*%
G36*
X45438Y382541D02*
X36398D01*
Y373501D01*
X45438D01*
Y382541D01*
D02*
G37*
G36*
X366998Y423250D02*
X357458D01*
Y413710D01*
X366998D01*
Y423250D01*
D02*
G37*
G36*
X378538D02*
X368998D01*
Y413710D01*
X378538D01*
Y423250D01*
D02*
G37*
G36*
X34398Y371501D02*
X25358D01*
Y362461D01*
X34398D01*
Y371501D01*
D02*
G37*
G36*
X45438D02*
X36398D01*
Y362461D01*
X45438D01*
Y371501D01*
D02*
G37*
G36*
X34398Y382541D02*
X25358D01*
Y373501D01*
X34398D01*
Y382541D01*
D02*
G37*
G36*
X366998Y434790D02*
X357458D01*
Y425250D01*
X366998D01*
Y434790D01*
D02*
G37*
G36*
X378538D02*
X368998D01*
Y425250D01*
X378538D01*
Y434790D01*
D02*
G37*
G36*
X416998D02*
X407458D01*
Y425250D01*
X416998D01*
Y434790D01*
D02*
G37*
G36*
Y423250D02*
X407458D01*
Y413710D01*
X416998D01*
Y423250D01*
D02*
G37*
G36*
X428538D02*
X418998D01*
Y413710D01*
X428538D01*
Y423250D01*
D02*
G37*
G36*
X171500Y608367D02*
X169159Y607901D01*
X167174Y606575D01*
X165848Y604591D01*
X165382Y602250D01*
X165848Y599908D01*
X167174Y597924D01*
X167487Y597715D01*
X167118Y596500D01*
X164500D01*
Y583000D01*
X173203D01*
X175976Y580227D01*
X177134Y579453D01*
X178500Y579181D01*
X180998D01*
Y576200D01*
X207998D01*
Y583546D01*
X209171Y584032D01*
X252931Y540272D01*
Y510750D01*
Y414000D01*
X247568D01*
Y524668D01*
X248326Y525174D01*
X249652Y527159D01*
X250117Y529500D01*
X249652Y531841D01*
X248326Y533826D01*
X246341Y535152D01*
X244000Y535617D01*
X243107Y535440D01*
X207998Y570549D01*
Y573500D01*
X180998D01*
Y563500D01*
X204953D01*
X206480Y561973D01*
X205993Y560800D01*
X193141D01*
X193048Y560819D01*
X178500D01*
Y568250D01*
X175882D01*
X175513Y569465D01*
X175826Y569674D01*
X177152Y571659D01*
X177617Y574000D01*
X177152Y576341D01*
X175826Y578325D01*
X173841Y579651D01*
X171500Y580117D01*
X169159Y579651D01*
X167174Y578325D01*
X165848Y576341D01*
X165382Y574000D01*
X165848Y571659D01*
X167174Y569674D01*
X167487Y569465D01*
X167118Y568250D01*
X164500D01*
Y554750D01*
X173203D01*
X173226Y554727D01*
X174384Y553953D01*
X175749Y553681D01*
X180998D01*
Y550800D01*
X207998D01*
Y558796D01*
X209171Y559282D01*
X238060Y530393D01*
X237882Y529500D01*
X238348Y527159D01*
X239674Y525174D01*
X240431Y524668D01*
Y414000D01*
X234385D01*
X233786Y415120D01*
X234297Y415884D01*
X234568Y417250D01*
Y512418D01*
X235326Y512924D01*
X236652Y514909D01*
X237117Y517250D01*
X236652Y519591D01*
X235326Y521576D01*
X233341Y522902D01*
X231000Y523368D01*
X230107Y523190D01*
X207998Y545299D01*
Y548100D01*
X180998D01*
Y538100D01*
X205103D01*
X206630Y536573D01*
X206144Y535400D01*
X180998D01*
Y533969D01*
X178500D01*
Y540000D01*
X175882D01*
X175513Y541215D01*
X175826Y541424D01*
X177152Y543409D01*
X177617Y545750D01*
X177152Y548091D01*
X175826Y550075D01*
X173841Y551401D01*
X171500Y551867D01*
X169159Y551401D01*
X167174Y550075D01*
X165848Y548091D01*
X165382Y545750D01*
X165848Y543409D01*
X167174Y541424D01*
X167487Y541215D01*
X167118Y540000D01*
X164500D01*
Y526500D01*
X178500D01*
Y526832D01*
X180998D01*
Y525400D01*
X207998D01*
Y533546D01*
X209171Y534032D01*
X225060Y518143D01*
X224882Y517250D01*
X225348Y514909D01*
X226674Y512924D01*
X227431Y512418D01*
Y418728D01*
X222703Y414000D01*
X215459D01*
X214574Y415326D01*
X212589Y416652D01*
X210248Y417118D01*
X207907Y416652D01*
X205922Y415326D01*
X205383Y414519D01*
X204113D01*
X203573Y415326D01*
X201589Y416652D01*
X199665Y417034D01*
X199297Y418250D01*
X220273Y439226D01*
X221047Y440384D01*
X221318Y441750D01*
X221318Y441750D01*
X221318Y441750D01*
Y441750D01*
Y500168D01*
X222076Y500674D01*
X223402Y502659D01*
X223867Y505000D01*
X223402Y507341D01*
X222076Y509326D01*
X220091Y510652D01*
X217750Y511118D01*
X216857Y510940D01*
X207998Y519799D01*
Y522700D01*
X180998D01*
Y512700D01*
X205003D01*
X206530Y511174D01*
X206044Y510000D01*
X180998D01*
Y508569D01*
X178500D01*
Y511750D01*
X175882D01*
X175513Y512965D01*
X175826Y513174D01*
X177152Y515159D01*
X177617Y517500D01*
X177152Y519841D01*
X175826Y521825D01*
X173841Y523152D01*
X171500Y523617D01*
X169159Y523152D01*
X167174Y521825D01*
X165848Y519841D01*
X165382Y517500D01*
X165848Y515159D01*
X167174Y513174D01*
X167487Y512965D01*
X167118Y511750D01*
X164500D01*
Y498250D01*
X178500D01*
Y501432D01*
X180998D01*
Y500000D01*
X207998D01*
Y508046D01*
X209171Y508532D01*
X211810Y505893D01*
X211632Y505000D01*
X212098Y502659D01*
X213424Y500674D01*
X214181Y500168D01*
Y443228D01*
X184953Y414000D01*
X134000D01*
Y412569D01*
X115750D01*
X114384Y412297D01*
X113227Y411523D01*
X77277Y375573D01*
X76503Y374416D01*
X76231Y373050D01*
Y194287D01*
X74505Y193572D01*
X72311Y191889D01*
X72021Y191511D01*
X70819Y191919D01*
Y393418D01*
X71576Y393924D01*
X72902Y395909D01*
X73368Y398250D01*
X72902Y400591D01*
X71576Y402576D01*
X69591Y403902D01*
X67250Y404367D01*
X64909Y403902D01*
X62924Y402576D01*
X61598Y400591D01*
X61132Y398250D01*
X61598Y395909D01*
X62924Y393924D01*
X63681Y393418D01*
Y191528D01*
X62479Y191119D01*
X61888Y191889D01*
X59695Y193572D01*
X57141Y194630D01*
X54400Y194991D01*
X51659Y194630D01*
X49105Y193572D01*
X46911Y191889D01*
X45228Y189695D01*
X44170Y187141D01*
X43809Y184400D01*
X44170Y181659D01*
X44885Y179932D01*
X37761Y172808D01*
X36588Y173294D01*
Y236075D01*
X37878Y236245D01*
X40189Y237202D01*
X42173Y238725D01*
X43696Y240709D01*
X44654Y243020D01*
X44980Y245501D01*
X44654Y247980D01*
X43696Y250292D01*
X42173Y252276D01*
X40189Y253799D01*
X37878Y254756D01*
X35398Y255082D01*
X32918Y254756D01*
X30607Y253799D01*
X28623Y252276D01*
X27100Y250292D01*
X26142Y247980D01*
X25816Y245501D01*
X26142Y243020D01*
X27100Y240709D01*
X27412Y240303D01*
Y144500D01*
X27412Y144500D01*
X27412D01*
X27761Y142744D01*
X28756Y141256D01*
X41006Y129006D01*
X42494Y128011D01*
X44250Y127662D01*
X192500D01*
X194256Y128011D01*
X195744Y129006D01*
X214238Y147500D01*
X217794D01*
X218280Y146326D01*
X193822Y121868D01*
X192649Y122354D01*
Y125250D01*
X172649D01*
Y105250D01*
X175588D01*
Y75250D01*
X172649D01*
Y55250D01*
X192649D01*
Y75250D01*
X189709D01*
Y105250D01*
X192649D01*
Y111761D01*
X193617Y111953D01*
X194774Y112727D01*
X194774Y112727D01*
X194774Y112727D01*
X229547Y147500D01*
X238251D01*
Y161000D01*
X234818D01*
Y163250D01*
X238249D01*
Y176750D01*
X236968D01*
Y178500D01*
X238400D01*
Y204500D01*
X228400D01*
Y178500D01*
X229831D01*
Y176750D01*
X226240D01*
Y177960D01*
X226240D01*
Y190500D01*
X220700D01*
Y191500D01*
X219700D01*
Y205040D01*
X216246D01*
X215760Y206213D01*
X222228Y212681D01*
X267999D01*
Y211297D01*
X261203Y204500D01*
X253800D01*
Y178500D01*
X256959D01*
Y177290D01*
X256959D01*
Y171000D01*
X272039D01*
Y177290D01*
X263800D01*
Y178500D01*
X263799D01*
Y197003D01*
X272296Y205500D01*
X281499D01*
Y209431D01*
X287500D01*
X288866Y209703D01*
X290023Y210476D01*
X290023Y210476D01*
X290023Y210476D01*
X299547Y220000D01*
X347250D01*
Y247000D01*
X324338D01*
Y249250D01*
X327250D01*
Y266750D01*
X324338D01*
Y269252D01*
X326500D01*
Y283712D01*
X327040D01*
Y290752D01*
X312460D01*
Y283712D01*
X313000D01*
Y269252D01*
X315162D01*
Y266750D01*
X312250D01*
Y263222D01*
X311130Y262624D01*
X309591Y263652D01*
X307250Y264118D01*
X304909Y263652D01*
X302924Y262326D01*
X301598Y260341D01*
X301133Y258000D01*
X301598Y255659D01*
X302924Y253674D01*
X304909Y252348D01*
X307250Y251882D01*
X309591Y252348D01*
X311130Y253376D01*
X312250Y252778D01*
Y249250D01*
X315162D01*
Y247000D01*
X296750D01*
X296750Y247000D01*
Y247000D01*
X296252Y246794D01*
X283999Y259047D01*
Y267750D01*
X269999D01*
Y254250D01*
X278703D01*
X296750Y236203D01*
Y227297D01*
X286022Y216568D01*
X281499D01*
Y219960D01*
X282039D01*
Y227000D01*
X267459D01*
Y219960D01*
D01*
Y219960D01*
X267318Y219819D01*
X255775D01*
X255289Y220992D01*
X260797Y226500D01*
X263799D01*
Y252500D01*
X262368D01*
Y254250D01*
X267999D01*
Y267750D01*
X253999D01*
Y254250D01*
X255231D01*
Y252500D01*
X253800D01*
Y229596D01*
X252273Y228070D01*
X251099Y228556D01*
Y252500D01*
X249668D01*
Y254250D01*
X250749D01*
Y267750D01*
X249306D01*
X248708Y268870D01*
X249402Y269909D01*
X249867Y272250D01*
X249402Y274591D01*
X248076Y276576D01*
X247318Y277082D01*
Y291000D01*
X275000D01*
Y331000D01*
X374000D01*
Y400000D01*
X335000D01*
Y414000D01*
X260068D01*
Y500475D01*
X261242Y500961D01*
X271998Y490205D01*
Y487300D01*
X298998D01*
Y497300D01*
X274996D01*
X273470Y498827D01*
X273956Y500000D01*
X298998D01*
Y501432D01*
X301500D01*
Y498250D01*
X315500D01*
Y511750D01*
X312882D01*
X312513Y512966D01*
X312825Y513174D01*
X314151Y515159D01*
X314617Y517500D01*
X314151Y519841D01*
X312825Y521826D01*
X310841Y523152D01*
X308500Y523618D01*
X306159Y523152D01*
X304174Y521826D01*
X302848Y519841D01*
X302382Y517500D01*
X302848Y515159D01*
X304174Y513174D01*
X304486Y512966D01*
X304118Y511750D01*
X301500D01*
Y508569D01*
X298998D01*
Y510000D01*
X271998D01*
Y501958D01*
X270825Y501472D01*
X260068Y512228D01*
Y524232D01*
X261189Y524831D01*
X262659Y523848D01*
X263840Y523613D01*
X271998Y515455D01*
Y512700D01*
X298998D01*
Y522700D01*
X274846D01*
X273320Y524227D01*
X273806Y525400D01*
X298998D01*
Y526431D01*
X305249D01*
X305597Y526501D01*
X315500D01*
Y540001D01*
X312882D01*
X312513Y541216D01*
X312826Y541425D01*
X314152Y543410D01*
X314617Y545751D01*
X314152Y548092D01*
X312826Y550076D01*
X310841Y551403D01*
X308500Y551868D01*
X306159Y551403D01*
X304174Y550076D01*
X302848Y548092D01*
X302382Y545751D01*
X302848Y543410D01*
X304174Y541425D01*
X304487Y541216D01*
X304118Y540001D01*
X301500D01*
Y533569D01*
X298998D01*
Y535400D01*
X271998D01*
Y531552D01*
X270734Y531427D01*
X270652Y531841D01*
X269326Y533826D01*
X267341Y535152D01*
X265000Y535617D01*
X262659Y535152D01*
X261189Y534169D01*
X260068Y534768D01*
Y537832D01*
X261189Y538431D01*
X262659Y537448D01*
X265000Y536983D01*
X267341Y537448D01*
X269326Y538774D01*
X269832Y539532D01*
X271998D01*
Y538100D01*
X298998D01*
Y548100D01*
X271998D01*
Y546669D01*
X269832D01*
X269326Y547426D01*
X267341Y548752D01*
X265000Y549218D01*
X262659Y548752D01*
X260674Y547426D01*
X259348Y545441D01*
X257485Y545812D01*
X207998Y595299D01*
Y598900D01*
X180998D01*
Y588900D01*
X204303D01*
X205830Y587374D01*
X205344Y586200D01*
X193543D01*
X192948Y586319D01*
X179978D01*
X178500Y587796D01*
Y596500D01*
X175882D01*
X175513Y597715D01*
X175826Y597924D01*
X177152Y599908D01*
X177617Y602250D01*
X177152Y604591D01*
X175826Y606575D01*
X173841Y607901D01*
X171500Y608367D01*
D02*
G37*
G36*
X36398Y357095D02*
Y348101D01*
X45393D01*
X45180Y349721D01*
X44168Y352164D01*
X42559Y354261D01*
X40461Y355870D01*
X38019Y356882D01*
X36398Y357095D01*
D02*
G37*
G36*
X34398Y306296D02*
X32777Y306082D01*
X30335Y305070D01*
X28237Y303461D01*
X26628Y301364D01*
X25616Y298922D01*
X25403Y297300D01*
X34398D01*
Y306296D01*
D02*
G37*
G36*
X36398D02*
Y297300D01*
X45393D01*
X45180Y298922D01*
X44168Y301364D01*
X42559Y303461D01*
X40461Y305070D01*
X38019Y306082D01*
X36398Y306296D01*
D02*
G37*
G36*
X34398Y320700D02*
X25403D01*
X25616Y319079D01*
X26628Y316637D01*
X28237Y314540D01*
X30335Y312931D01*
X32777Y311919D01*
X34398Y311705D01*
Y320700D01*
D02*
G37*
G36*
X327040Y299792D02*
X320750D01*
Y292752D01*
X327040D01*
Y299792D01*
D02*
G37*
G36*
X338750Y299792D02*
X332460D01*
Y292752D01*
X338750D01*
Y299792D01*
D02*
G37*
G36*
X347040D02*
X340750D01*
Y292752D01*
X347040D01*
Y299792D01*
D02*
G37*
G36*
X34398Y346101D02*
X25403D01*
X25616Y344479D01*
X26628Y342037D01*
X28237Y339940D01*
X30335Y338331D01*
X32777Y337319D01*
X34398Y337105D01*
Y346101D01*
D02*
G37*
G36*
X45393D02*
X36398D01*
Y337105D01*
X38019Y337319D01*
X40461Y338331D01*
X42559Y339940D01*
X44168Y342037D01*
X45180Y344479D01*
X45393Y346101D01*
D02*
G37*
G36*
X34398Y357095D02*
X32777Y356882D01*
X30335Y355870D01*
X28237Y354261D01*
X26628Y352164D01*
X25616Y349721D01*
X25403Y348101D01*
X34398D01*
Y357095D01*
D02*
G37*
G36*
X45393Y320700D02*
X36398D01*
Y311705D01*
X38019Y311919D01*
X40461Y312931D01*
X42559Y314540D01*
X44168Y316637D01*
X45180Y319079D01*
X45393Y320700D01*
D02*
G37*
G36*
X34398Y331696D02*
X32777Y331482D01*
X30335Y330470D01*
X28237Y328861D01*
X26628Y326764D01*
X25616Y324322D01*
X25403Y322701D01*
X34398D01*
Y331696D01*
D02*
G37*
G36*
X36398D02*
Y322701D01*
X45393D01*
X45180Y324322D01*
X44168Y326764D01*
X42559Y328861D01*
X40461Y330470D01*
X38019Y331482D01*
X36398Y331696D01*
D02*
G37*
G36*
X378538Y499450D02*
X368998D01*
Y489910D01*
X378538D01*
Y499450D01*
D02*
G37*
G36*
X416998D02*
X407458D01*
Y489910D01*
X416998D01*
Y499450D01*
D02*
G37*
G36*
X428538D02*
X418998D01*
Y489910D01*
X428538D01*
Y499450D01*
D02*
G37*
G36*
X207998Y484600D02*
X180998D01*
Y474600D01*
D01*
Y474600D01*
X180716Y474319D01*
X179248D01*
Y477750D01*
X165748D01*
Y463750D01*
X179248D01*
Y467181D01*
X181748D01*
Y454750D01*
X184660D01*
Y452933D01*
X183596Y451341D01*
X183130Y449000D01*
X183596Y446659D01*
X184922Y444674D01*
X186907Y443348D01*
X189248Y442883D01*
X191589Y443348D01*
X193574Y444674D01*
X194900Y446659D01*
X195365Y449000D01*
X194900Y451341D01*
X193836Y452933D01*
Y454750D01*
X196208D01*
Y454210D01*
X203248D01*
Y461500D01*
Y468790D01*
X196208D01*
Y468250D01*
X193836D01*
Y472450D01*
X195987Y474600D01*
X207998D01*
Y484600D01*
D02*
G37*
G36*
X315750Y493750D02*
X302250D01*
Y486797D01*
X300022Y484569D01*
X298998D01*
Y484600D01*
X271998D01*
Y474600D01*
X281929D01*
Y471932D01*
X281172Y471426D01*
X279846Y469441D01*
X279380Y467100D01*
X279846Y464759D01*
X281172Y462775D01*
X283157Y461448D01*
X285498Y460983D01*
X287839Y461448D01*
X289824Y462775D01*
X291150Y464759D01*
X291616Y467100D01*
X291150Y469441D01*
X289824Y471426D01*
X289067Y471932D01*
Y474600D01*
X298998D01*
Y477431D01*
X301500D01*
X302250Y476816D01*
Y463750D01*
X303890D01*
X304674Y462576D01*
X303348Y460591D01*
X302882Y458250D01*
X303348Y455909D01*
X304674Y453924D01*
X306659Y452598D01*
X309000Y452132D01*
X311341Y452598D01*
X313326Y453924D01*
X314652Y455909D01*
X315117Y458250D01*
X314652Y460591D01*
X313326Y462576D01*
X314110Y463750D01*
X315750D01*
Y477750D01*
X304956D01*
X304470Y478923D01*
X305297Y479750D01*
X315750D01*
Y493750D01*
D02*
G37*
G36*
X366998Y499450D02*
X357458D01*
Y489910D01*
X366998D01*
Y499450D01*
D02*
G37*
G36*
X416998Y510990D02*
X407458D01*
Y501450D01*
X416998D01*
Y510990D01*
D02*
G37*
G36*
X428538D02*
X418998D01*
Y501450D01*
X428538D01*
Y510990D01*
D02*
G37*
G36*
X162500Y540000D02*
X148500D01*
Y536818D01*
X144797D01*
X143432Y536547D01*
X142274Y535773D01*
X116951Y510450D01*
X101998D01*
Y507510D01*
X71998D01*
Y510450D01*
X51998D01*
Y490450D01*
X71998D01*
Y493390D01*
X101998D01*
Y490450D01*
X121998D01*
Y505403D01*
X146276Y529681D01*
X148500D01*
Y526500D01*
X162500D01*
Y540000D01*
D02*
G37*
G36*
X207998Y497300D02*
X180998D01*
Y494319D01*
X176498D01*
X175132Y494047D01*
X174688Y493750D01*
X165748D01*
Y491132D01*
X164533Y490763D01*
X164324Y491076D01*
X162339Y492402D01*
X159998Y492868D01*
X157657Y492402D01*
X155672Y491076D01*
X154346Y489091D01*
X153880Y486750D01*
X154346Y484409D01*
X155672Y482424D01*
X157657Y481098D01*
X159998Y480632D01*
X162339Y481098D01*
X164324Y482424D01*
X164533Y482737D01*
X165748Y482368D01*
Y479750D01*
X179248D01*
Y487181D01*
X192948D01*
X193545Y487300D01*
X207998D01*
Y497300D01*
D02*
G37*
G36*
X366998Y510990D02*
X357458D01*
Y501450D01*
X366998D01*
Y510990D01*
D02*
G37*
G36*
X378538D02*
X368998D01*
Y501450D01*
X378538D01*
Y510990D01*
D02*
G37*
G36*
X122538Y472890D02*
X112998D01*
Y463350D01*
X122538D01*
Y472890D01*
D02*
G37*
G36*
X72538Y461350D02*
X62998D01*
Y451810D01*
X72538D01*
Y461350D01*
D02*
G37*
G36*
X110998D02*
X101458D01*
Y451810D01*
X110998D01*
Y461350D01*
D02*
G37*
G36*
X122538D02*
X112998D01*
Y451810D01*
X122538D01*
Y461350D01*
D02*
G37*
G36*
X428538Y434790D02*
X418998D01*
Y425250D01*
X428538D01*
Y434790D01*
D02*
G37*
G36*
X162500Y511750D02*
X148500D01*
Y503046D01*
X136727Y491273D01*
X135953Y490115D01*
X135681Y488750D01*
Y452980D01*
X116951Y434250D01*
X101998D01*
Y431311D01*
X71998D01*
Y434250D01*
X51998D01*
Y414250D01*
X71998D01*
Y417190D01*
X101998D01*
Y414250D01*
X121998D01*
Y429203D01*
X141773Y448979D01*
X142547Y450136D01*
X142819Y451502D01*
Y487272D01*
X153797Y498250D01*
X162500D01*
Y511750D01*
D02*
G37*
G36*
X60998Y461350D02*
X51458D01*
Y451810D01*
X60998D01*
Y461350D01*
D02*
G37*
G36*
Y472890D02*
X51458D01*
Y463350D01*
X60998D01*
Y472890D01*
D02*
G37*
G36*
X72538D02*
X62998D01*
Y463350D01*
X72538D01*
Y472890D01*
D02*
G37*
G36*
X110998D02*
X101458D01*
Y463350D01*
X110998D01*
Y472890D01*
D02*
G37*
G36*
X331500Y511750D02*
X317500D01*
Y498250D01*
X326203D01*
X357998Y466455D01*
Y452350D01*
X377998D01*
Y455290D01*
X407998D01*
Y452350D01*
X427998D01*
Y472350D01*
X407998D01*
Y469411D01*
X377998D01*
Y472350D01*
X362197D01*
X331500Y503047D01*
Y511750D01*
D02*
G37*
G36*
X212288Y460500D02*
X205248D01*
Y454210D01*
X212288D01*
Y460500D01*
D02*
G37*
G36*
Y468790D02*
X205248D01*
Y462500D01*
X212288D01*
Y468790D01*
D02*
G37*
G36*
X417998Y110097D02*
X414077Y109711D01*
X410307Y108567D01*
X406833Y106710D01*
X403787Y104211D01*
X401288Y101165D01*
X399431Y97691D01*
X398288Y93921D01*
X397901Y90000D01*
X398288Y86080D01*
X399431Y82310D01*
X401288Y78835D01*
X403787Y75790D01*
X406833Y73290D01*
X410307Y71433D01*
X414077Y70290D01*
X417998Y69903D01*
X421919Y70290D01*
X425689Y71433D01*
X429163Y73290D01*
X432209Y75790D01*
X434708Y78835D01*
X436565Y82310D01*
X437709Y86080D01*
X438095Y90000D01*
X437709Y93921D01*
X436565Y97691D01*
X434708Y101165D01*
X432209Y104211D01*
X429163Y106710D01*
X425689Y108567D01*
X421919Y109711D01*
X417998Y110097D01*
D02*
G37*
G36*
X148751Y99368D02*
X146410Y98902D01*
X144425Y97576D01*
X143099Y95591D01*
X142634Y93250D01*
X143099Y90909D01*
X144425Y88924D01*
X143639Y87748D01*
X141999D01*
Y73748D01*
X155499D01*
Y87748D01*
X153863D01*
X153077Y88924D01*
X154403Y90909D01*
X154869Y93250D01*
X154403Y95591D01*
X153077Y97576D01*
X151092Y98902D01*
X148751Y99368D01*
D02*
G37*
G36*
X333999Y99365D02*
X331658Y98899D01*
X329673Y97573D01*
X328347Y95589D01*
X327881Y93248D01*
X328347Y90906D01*
X329673Y88922D01*
X328888Y87748D01*
X327249D01*
Y73748D01*
X340749D01*
Y87748D01*
X339109D01*
X338325Y88922D01*
X339651Y90906D01*
X340116Y93248D01*
X339651Y95589D01*
X338325Y97573D01*
X336340Y98899D01*
X333999Y99365D01*
D02*
G37*
G36*
X257849Y75790D02*
X248309D01*
Y66250D01*
X257849D01*
Y75790D01*
D02*
G37*
G36*
X269389D02*
X259849D01*
Y66250D01*
X269389D01*
Y75790D01*
D02*
G37*
G36*
X61998Y110097D02*
X58077Y109711D01*
X54307Y108567D01*
X50833Y106710D01*
X47787Y104211D01*
X45288Y101165D01*
X43431Y97691D01*
X42288Y93921D01*
X41901Y90000D01*
X42288Y86080D01*
X43431Y82310D01*
X45288Y78835D01*
X47787Y75790D01*
X50833Y73290D01*
X54307Y71433D01*
X58077Y70290D01*
X61998Y69903D01*
X65919Y70290D01*
X69689Y71433D01*
X73163Y73290D01*
X76209Y75790D01*
X78708Y78835D01*
X80565Y82310D01*
X81709Y86080D01*
X82095Y90000D01*
X81709Y93921D01*
X80565Y97691D01*
X78708Y101165D01*
X76209Y104211D01*
X73163Y106710D01*
X69689Y108567D01*
X65919Y109711D01*
X61998Y110097D01*
D02*
G37*
G36*
X269389Y125790D02*
X259849D01*
Y116250D01*
X269389D01*
Y125790D01*
D02*
G37*
G36*
X348140Y144750D02*
X328140D01*
Y138338D01*
X315449D01*
X313693Y137989D01*
X312204Y136994D01*
X300460Y125250D01*
X286949D01*
Y105250D01*
X289888D01*
Y75250D01*
X286949D01*
Y55250D01*
X306949D01*
Y75250D01*
X304009D01*
Y105250D01*
X306949D01*
Y118762D01*
X317349Y129162D01*
X328140D01*
Y122750D01*
X348140D01*
Y144750D01*
D02*
G37*
G36*
X419750Y271248D02*
X399750D01*
Y237248D01*
X419750D01*
Y241411D01*
X426250D01*
Y237749D01*
X443263D01*
X454912Y226099D01*
Y180900D01*
X412350Y138338D01*
X393860D01*
Y144750D01*
X373860D01*
Y122750D01*
X393860D01*
Y129162D01*
X414250D01*
X416006Y129511D01*
X417494Y130506D01*
X462744Y175756D01*
X463739Y177244D01*
X464088Y179000D01*
X464088Y179000D01*
X464088Y179000D01*
Y179000D01*
Y228000D01*
X463739Y229756D01*
X462744Y231244D01*
X449750Y244238D01*
Y254249D01*
X426250D01*
Y250587D01*
X419900D01*
X419750Y250737D01*
Y271248D01*
D02*
G37*
G36*
X257849Y114250D02*
X248309D01*
Y104710D01*
X257849D01*
Y114250D01*
D02*
G37*
G36*
X269389D02*
X259849D01*
Y104710D01*
X269389D01*
Y114250D01*
D02*
G37*
G36*
X257849Y125790D02*
X248309D01*
Y116250D01*
X257849D01*
Y125790D01*
D02*
G37*
G36*
X251099Y204500D02*
X241100D01*
Y178500D01*
X242531D01*
Y176750D01*
X241500D01*
Y163250D01*
X244931D01*
Y144479D01*
X225702Y125250D01*
X210749D01*
Y105250D01*
X213688D01*
Y75250D01*
X210749D01*
Y55250D01*
X230749D01*
Y75250D01*
X227809D01*
Y105250D01*
X230749D01*
Y120203D01*
X251023Y140478D01*
X251796Y141635D01*
X252068Y143001D01*
Y163250D01*
X255499D01*
Y176750D01*
X249668D01*
Y178500D01*
X251099D01*
Y204500D01*
D02*
G37*
G36*
X155789Y29247D02*
X149749D01*
Y22707D01*
X155789D01*
Y29247D01*
D02*
G37*
G36*
X332999Y37787D02*
X326959D01*
Y31247D01*
X332999D01*
Y37787D01*
D02*
G37*
G36*
X341039D02*
X334999D01*
Y31247D01*
X341039D01*
Y37787D01*
D02*
G37*
G36*
X332999Y29247D02*
X326959D01*
Y22707D01*
X332999D01*
Y29247D01*
D02*
G37*
G36*
X341039D02*
X334999D01*
Y22707D01*
X341039D01*
Y29247D01*
D02*
G37*
G36*
X147749Y29247D02*
X141709D01*
Y22707D01*
X147749D01*
Y29247D01*
D02*
G37*
G36*
X340749Y71748D02*
X327249D01*
Y57748D01*
X330430D01*
Y54247D01*
X327499D01*
Y40247D01*
X340499D01*
Y54247D01*
X337567D01*
Y57748D01*
X340749D01*
Y71748D01*
D02*
G37*
G36*
X257849Y64250D02*
X248309D01*
Y54710D01*
X257849D01*
Y64250D01*
D02*
G37*
G36*
X269389D02*
X259849D01*
Y54710D01*
X269389D01*
Y64250D01*
D02*
G37*
G36*
X147749Y37787D02*
X141709D01*
Y31247D01*
X147749D01*
Y37787D01*
D02*
G37*
G36*
X155789D02*
X149749D01*
Y31247D01*
X155789D01*
Y37787D01*
D02*
G37*
G36*
X155499Y71748D02*
X141999D01*
Y57748D01*
X145180D01*
Y54247D01*
X142249D01*
Y40247D01*
X155249D01*
Y54247D01*
X152317D01*
Y57748D01*
X155499D01*
Y71748D01*
D02*
G37*
G36*
X282039Y236040D02*
X275749D01*
Y229000D01*
X282039D01*
Y236040D01*
D02*
G37*
G36*
X347040Y290752D02*
X332460D01*
Y283712D01*
X333000D01*
Y269252D01*
X335162D01*
Y266750D01*
X332250D01*
Y249250D01*
X347250D01*
Y253412D01*
X353750D01*
Y237248D01*
X373750D01*
Y271248D01*
X353750D01*
Y262588D01*
X347250D01*
Y266750D01*
X344338D01*
Y269252D01*
X346500D01*
Y283712D01*
X347040D01*
Y290752D01*
D02*
G37*
G36*
X34398Y269900D02*
X25403D01*
X25616Y268279D01*
X26628Y265837D01*
X28237Y263740D01*
X30335Y262131D01*
X32777Y261119D01*
X34398Y260905D01*
Y269900D01*
D02*
G37*
G36*
X437000Y224289D02*
X425710D01*
Y216499D01*
X437000D01*
Y224289D01*
D02*
G37*
G36*
X450290D02*
X439000D01*
Y216499D01*
X450290D01*
Y224289D01*
D02*
G37*
G36*
X273749Y236040D02*
X267459D01*
Y229000D01*
X273749D01*
Y236040D01*
D02*
G37*
G36*
X34398Y295301D02*
X25403D01*
X25616Y293680D01*
X26628Y291237D01*
X28237Y289140D01*
X30335Y287531D01*
X32777Y286519D01*
X34398Y286306D01*
Y295301D01*
D02*
G37*
G36*
X45393D02*
X36398D01*
Y286306D01*
X38019Y286519D01*
X40461Y287531D01*
X42559Y289140D01*
X44168Y291237D01*
X45180Y293680D01*
X45393Y295301D01*
D02*
G37*
G36*
X318750Y299792D02*
X312460D01*
Y292752D01*
X318750D01*
Y299792D01*
D02*
G37*
G36*
X45393Y269900D02*
X36398D01*
Y260905D01*
X38019Y261119D01*
X40461Y262131D01*
X42559Y263740D01*
X44168Y265837D01*
X45180Y268279D01*
X45393Y269900D01*
D02*
G37*
G36*
X34398Y280896D02*
X32777Y280682D01*
X30335Y279670D01*
X28237Y278061D01*
X26628Y275964D01*
X25616Y273521D01*
X25403Y271901D01*
X34398D01*
Y280896D01*
D02*
G37*
G36*
X36398D02*
Y271901D01*
X45393D01*
X45180Y273521D01*
X44168Y275964D01*
X42559Y278061D01*
X40461Y279670D01*
X38019Y280682D01*
X36398Y280896D01*
D02*
G37*
G36*
X450290Y214499D02*
X439000D01*
Y206709D01*
X450290D01*
Y214499D01*
D02*
G37*
G36*
X347790Y170500D02*
X323000D01*
Y157460D01*
X347790D01*
Y170500D01*
D02*
G37*
G36*
X263499Y169000D02*
X256959D01*
Y162710D01*
X263499D01*
Y169000D01*
D02*
G37*
G36*
X272039D02*
X265499D01*
Y162710D01*
X272039D01*
Y169000D01*
D02*
G37*
G36*
X385750Y187248D02*
X350710D01*
Y152208D01*
X385750D01*
Y187248D01*
D02*
G37*
G36*
X422790D02*
X387750D01*
Y152208D01*
X422790D01*
Y187248D01*
D02*
G37*
G36*
X321000Y170500D02*
X296210D01*
Y157460D01*
X321000D01*
Y170500D01*
D02*
G37*
G36*
X422790Y224288D02*
X387750D01*
Y189248D01*
X422790D01*
Y224288D01*
D02*
G37*
G36*
X226240Y205040D02*
X221700D01*
Y192500D01*
X226240D01*
Y205040D01*
D02*
G37*
G36*
X437000Y214499D02*
X425710D01*
Y206709D01*
X437000D01*
Y214499D01*
D02*
G37*
G36*
X321000Y185540D02*
X296210D01*
Y172500D01*
X321000D01*
Y185540D01*
D02*
G37*
G36*
X347790D02*
X323000D01*
Y172500D01*
X347790D01*
Y185540D01*
D02*
G37*
G36*
X385750Y224288D02*
X350710D01*
Y189248D01*
X385750D01*
Y224288D01*
D02*
G37*
G36*
X60998Y537550D02*
X51458D01*
Y528010D01*
X60998D01*
Y537550D01*
D02*
G37*
G36*
X211000Y659000D02*
X197000D01*
Y655819D01*
X193750D01*
Y658750D01*
X179750D01*
Y645750D01*
X193750D01*
Y648681D01*
X197000D01*
Y645500D01*
X211000D01*
Y659000D01*
D02*
G37*
G36*
X267000Y659000D02*
X253000D01*
Y657360D01*
X251825Y656576D01*
X249841Y657902D01*
X247500Y658367D01*
X245159Y657902D01*
X243174Y656576D01*
X241848Y654591D01*
X241382Y652250D01*
X241848Y649909D01*
X243174Y647924D01*
X245159Y646598D01*
X247500Y646132D01*
X249841Y646598D01*
X251825Y647924D01*
X253000Y647140D01*
Y645500D01*
X267000D01*
Y659000D01*
D02*
G37*
G36*
X121998Y662850D02*
X101998D01*
Y659911D01*
X71998D01*
Y662850D01*
X51998D01*
Y642850D01*
X71998D01*
Y645790D01*
X101998D01*
Y642850D01*
X116951D01*
X151931Y607870D01*
Y596500D01*
X148500D01*
Y583000D01*
X162500D01*
Y596500D01*
X159068D01*
Y609348D01*
X158797Y610714D01*
X158023Y611871D01*
X121998Y647897D01*
Y662850D01*
D02*
G37*
G36*
X428538Y663390D02*
X418998D01*
Y653850D01*
X428538D01*
Y663390D01*
D02*
G37*
G36*
X366998D02*
X357458D01*
Y653850D01*
X366998D01*
Y663390D01*
D02*
G37*
G36*
X378538D02*
X368998D01*
Y653850D01*
X378538D01*
Y663390D01*
D02*
G37*
G36*
X416998D02*
X407458D01*
Y653850D01*
X416998D01*
Y663390D01*
D02*
G37*
G36*
X283000Y691000D02*
X269000D01*
Y677500D01*
X283000D01*
Y680681D01*
X286250D01*
Y677750D01*
X300250D01*
Y690750D01*
X286250D01*
Y687819D01*
X283000D01*
Y691000D01*
D02*
G37*
G36*
X227000Y691000D02*
X213000D01*
Y677500D01*
X227000D01*
Y679140D01*
X228174Y679924D01*
X230159Y678598D01*
X232500Y678132D01*
X234841Y678598D01*
X236826Y679924D01*
X238152Y681909D01*
X238617Y684250D01*
X238152Y686591D01*
X236826Y688576D01*
X234841Y689902D01*
X232500Y690368D01*
X230159Y689902D01*
X228174Y688576D01*
X227000Y689360D01*
Y691000D01*
D02*
G37*
G36*
X60998Y689950D02*
X51458D01*
Y680410D01*
X60998D01*
Y689950D01*
D02*
G37*
G36*
X177290Y683250D02*
X170750D01*
Y677210D01*
X177290D01*
Y683250D01*
D02*
G37*
G36*
X309250Y683250D02*
X302710D01*
Y677210D01*
X309250D01*
Y683250D01*
D02*
G37*
G36*
X317790D02*
X311250D01*
Y677210D01*
X317790D01*
Y683250D01*
D02*
G37*
G36*
X168750Y683250D02*
X162210D01*
Y677210D01*
X168750D01*
Y683250D01*
D02*
G37*
G36*
X309250Y651250D02*
X302710D01*
Y645210D01*
X309250D01*
Y651250D01*
D02*
G37*
G36*
X317790D02*
X311250D01*
Y645210D01*
X317790D01*
Y651250D01*
D02*
G37*
G36*
X168750Y651250D02*
X162210D01*
Y645210D01*
X168750D01*
Y651250D01*
D02*
G37*
G36*
X428538Y651850D02*
X418998D01*
Y642310D01*
X428538D01*
Y651850D01*
D02*
G37*
G36*
X366998D02*
X357458D01*
Y642310D01*
X366998D01*
Y651850D01*
D02*
G37*
G36*
X378538D02*
X368998D01*
Y642310D01*
X378538D01*
Y651850D01*
D02*
G37*
G36*
X416998D02*
X407458D01*
Y642310D01*
X416998D01*
Y651850D01*
D02*
G37*
G36*
X317790Y659290D02*
X311250D01*
Y653250D01*
X317790D01*
Y659290D01*
D02*
G37*
G36*
X168750Y659290D02*
X162210D01*
Y653250D01*
X168750D01*
Y659290D01*
D02*
G37*
G36*
X177290D02*
X170750D01*
Y653250D01*
X177290D01*
Y659290D01*
D02*
G37*
G36*
X309250Y659290D02*
X302710D01*
Y653250D01*
X309250D01*
Y659290D01*
D02*
G37*
G36*
X177290Y651250D02*
X170750D01*
Y645210D01*
X177290D01*
Y651250D01*
D02*
G37*
G36*
X283000Y659000D02*
X269000D01*
Y645500D01*
X283000D01*
Y648681D01*
X286250D01*
Y645750D01*
X300250D01*
Y658750D01*
X286250D01*
Y655818D01*
X283000D01*
Y659000D01*
D02*
G37*
G36*
X227000Y659000D02*
X213000D01*
Y645500D01*
X227000D01*
Y647140D01*
X228174Y647924D01*
X230159Y646598D01*
X232500Y646133D01*
X234841Y646598D01*
X236826Y647924D01*
X238152Y649909D01*
X238617Y652250D01*
X238152Y654591D01*
X236826Y656576D01*
X234841Y657902D01*
X232500Y658367D01*
X230159Y657902D01*
X228174Y656576D01*
X227000Y657360D01*
Y659000D01*
D02*
G37*
G36*
X283000Y723000D02*
X269000D01*
Y709500D01*
X283000D01*
Y712681D01*
X286250D01*
Y709750D01*
X300250D01*
Y722750D01*
X286250D01*
Y719818D01*
X283000D01*
Y723000D01*
D02*
G37*
G36*
X227000Y723000D02*
X213000D01*
Y709500D01*
X227000D01*
Y711140D01*
X228174Y711924D01*
X230159Y710598D01*
X232500Y710132D01*
X234841Y710598D01*
X236826Y711924D01*
X238152Y713909D01*
X238617Y716250D01*
X238152Y718591D01*
X236826Y720576D01*
X234841Y721902D01*
X232500Y722367D01*
X230159Y721902D01*
X228174Y720576D01*
X227000Y721360D01*
Y723000D01*
D02*
G37*
G36*
X309250Y723290D02*
X302710D01*
Y717250D01*
X309250D01*
Y723290D01*
D02*
G37*
G36*
X177290Y715250D02*
X170750D01*
Y709210D01*
X177290D01*
Y715250D01*
D02*
G37*
G36*
X309250Y715250D02*
X302710D01*
Y709210D01*
X309250D01*
Y715250D01*
D02*
G37*
G36*
X317790D02*
X311250D01*
Y709210D01*
X317790D01*
Y715250D01*
D02*
G37*
G36*
X168750Y715250D02*
X162210D01*
Y709210D01*
X168750D01*
Y715250D01*
D02*
G37*
G36*
X267000Y723000D02*
X253000D01*
Y721360D01*
X251825Y720576D01*
X249841Y721902D01*
X247500Y722367D01*
X245159Y721902D01*
X243174Y720576D01*
X241848Y718591D01*
X241382Y716250D01*
X241848Y713909D01*
X243174Y711924D01*
X245159Y710598D01*
X247500Y710132D01*
X249841Y710598D01*
X251825Y711924D01*
X253000Y711140D01*
Y709500D01*
X267000D01*
Y723000D01*
D02*
G37*
G36*
X62000Y800347D02*
X58079Y799961D01*
X54309Y798817D01*
X50835Y796960D01*
X47789Y794461D01*
X45290Y791415D01*
X43433Y787941D01*
X42289Y784171D01*
X41903Y780250D01*
X42289Y776329D01*
X43433Y772559D01*
X45290Y769085D01*
X47789Y766039D01*
X50835Y763540D01*
X54309Y761683D01*
X58079Y760539D01*
X62000Y760153D01*
X65921Y760539D01*
X69691Y761683D01*
X73165Y763540D01*
X76211Y766039D01*
X78710Y769085D01*
X80567Y772559D01*
X81711Y776329D01*
X82097Y780250D01*
X81711Y784171D01*
X80567Y787941D01*
X78710Y791415D01*
X76211Y794461D01*
X73165Y796960D01*
X69691Y798817D01*
X65921Y799961D01*
X62000Y800347D01*
D02*
G37*
G36*
X418000D02*
X414079Y799961D01*
X410309Y798817D01*
X406835Y796960D01*
X403789Y794461D01*
X401290Y791415D01*
X399433Y787941D01*
X398289Y784171D01*
X397903Y780250D01*
X398289Y776329D01*
X399433Y772559D01*
X401290Y769085D01*
X403789Y766039D01*
X406835Y763540D01*
X410309Y761683D01*
X414079Y760539D01*
X418000Y760153D01*
X421921Y760539D01*
X425691Y761683D01*
X429165Y763540D01*
X432211Y766039D01*
X434710Y769085D01*
X436567Y772559D01*
X437711Y776329D01*
X438097Y780250D01*
X437711Y784171D01*
X436567Y787941D01*
X434710Y791415D01*
X432211Y794461D01*
X429165Y796960D01*
X425691Y798817D01*
X421921Y799961D01*
X418000Y800347D01*
D02*
G37*
G36*
X211000Y723000D02*
X197000D01*
Y719819D01*
X193750D01*
Y722750D01*
X179750D01*
Y709750D01*
X193750D01*
Y712681D01*
X197000D01*
Y709500D01*
X211000D01*
Y723000D01*
D02*
G37*
G36*
X317790Y723290D02*
X311250D01*
Y717250D01*
X317790D01*
Y723290D01*
D02*
G37*
G36*
X168750Y723290D02*
X162210D01*
Y717250D01*
X168750D01*
Y723290D01*
D02*
G37*
G36*
X177290D02*
X170750D01*
Y717250D01*
X177290D01*
Y723290D01*
D02*
G37*
G36*
X317790Y691290D02*
X311250D01*
Y685250D01*
X317790D01*
Y691290D01*
D02*
G37*
G36*
X168750Y691290D02*
X162210D01*
Y685250D01*
X168750D01*
Y691290D01*
D02*
G37*
G36*
X177290D02*
X170750D01*
Y685250D01*
X177290D01*
Y691290D01*
D02*
G37*
G36*
X309250Y691290D02*
X302710D01*
Y685250D01*
X309250D01*
Y691290D01*
D02*
G37*
G36*
X72538Y689950D02*
X62998D01*
Y680410D01*
X72538D01*
Y689950D01*
D02*
G37*
G36*
X110998D02*
X101458D01*
Y680410D01*
X110998D01*
Y689950D01*
D02*
G37*
G36*
X122538D02*
X112998D01*
Y680410D01*
X122538D01*
Y689950D01*
D02*
G37*
G36*
X110998Y701490D02*
X101458D01*
Y691950D01*
X110998D01*
Y701490D01*
D02*
G37*
G36*
X122538D02*
X112998D01*
Y691950D01*
X122538D01*
Y701490D01*
D02*
G37*
G36*
X427998Y700950D02*
X407998D01*
Y698011D01*
X377998D01*
Y700950D01*
X357998D01*
Y685997D01*
X321976Y649975D01*
X321203Y648818D01*
X320931Y647452D01*
Y596501D01*
X317500D01*
Y583000D01*
X331500D01*
Y596501D01*
X328068D01*
Y645974D01*
X363045Y680950D01*
X377998D01*
Y683890D01*
X407998D01*
Y680950D01*
X427998D01*
Y700950D01*
D02*
G37*
G36*
X72538Y701490D02*
X62998D01*
Y691950D01*
X72538D01*
Y701490D01*
D02*
G37*
G36*
X211000Y691000D02*
X197000D01*
Y687819D01*
X193750D01*
Y690750D01*
X179750D01*
Y677750D01*
X193750D01*
Y680681D01*
X197000D01*
Y677500D01*
X211000D01*
Y691000D01*
D02*
G37*
G36*
X267000Y691000D02*
X253000D01*
Y689360D01*
X251825Y688576D01*
X249841Y689902D01*
X247500Y690368D01*
X245159Y689902D01*
X243174Y688576D01*
X241848Y686591D01*
X241382Y684250D01*
X241848Y681909D01*
X243174Y679924D01*
X245159Y678598D01*
X247500Y678132D01*
X249841Y678598D01*
X251825Y679924D01*
X253000Y679140D01*
Y677500D01*
X267000D01*
Y691000D01*
D02*
G37*
G36*
X60998Y701490D02*
X51458D01*
Y691950D01*
X60998D01*
Y701490D01*
D02*
G37*
G36*
X284498Y599440D02*
X271458D01*
Y594900D01*
X284498D01*
Y599440D01*
D02*
G37*
G36*
X299538Y592900D02*
X286498D01*
Y588360D01*
X299538D01*
Y592900D01*
D02*
G37*
G36*
X60998Y613750D02*
X51458D01*
Y604210D01*
X60998D01*
Y613750D01*
D02*
G37*
G36*
X299538Y599440D02*
X286498D01*
Y594900D01*
X299538D01*
Y599440D01*
D02*
G37*
G36*
X121998Y586650D02*
X101998D01*
Y583711D01*
X71998D01*
Y586650D01*
X51998D01*
Y566650D01*
X71998D01*
Y569590D01*
X101998D01*
Y566650D01*
X116951D01*
X124625Y558976D01*
X124625Y558976D01*
X124625D01*
X124625Y558976D01*
X124625D01*
X124625Y558976D01*
Y558976D01*
Y558976D01*
D01*
D01*
X124625D01*
Y558976D01*
X125783Y558203D01*
X127148Y557931D01*
X148500D01*
Y554750D01*
X162500D01*
Y568250D01*
X148500D01*
Y565068D01*
X128627D01*
X121998Y571697D01*
Y586650D01*
D02*
G37*
G36*
X428538Y587190D02*
X418998D01*
Y577650D01*
X428538D01*
Y587190D01*
D02*
G37*
G36*
X284498Y592900D02*
X271458D01*
Y588360D01*
X284498D01*
Y592900D01*
D02*
G37*
G36*
X308500Y608368D02*
X306159Y607902D01*
X304174Y606576D01*
X302848Y604591D01*
X302382Y602250D01*
X302848Y599909D01*
X304174Y597925D01*
X304487Y597716D01*
X304118Y596501D01*
X301500D01*
Y587797D01*
X299771Y586069D01*
X298998D01*
Y586200D01*
X271998D01*
Y576200D01*
X298998D01*
Y578931D01*
X301249D01*
X302615Y579203D01*
X303773Y579977D01*
X303773Y579977D01*
X303773Y579977D01*
X306796Y583000D01*
X315500D01*
Y596501D01*
X312882D01*
X312513Y597716D01*
X312826Y597925D01*
X314152Y599909D01*
X314617Y602250D01*
X314152Y604591D01*
X312826Y606576D01*
X310841Y607902D01*
X308500Y608368D01*
D02*
G37*
G36*
X168750Y619250D02*
X162210D01*
Y613210D01*
X168750D01*
Y619250D01*
D02*
G37*
G36*
X318290Y619250D02*
X311750D01*
Y613210D01*
X318290D01*
Y619250D01*
D02*
G37*
G36*
X283000Y627000D02*
X269000D01*
Y613500D01*
X283000D01*
Y616681D01*
X286750D01*
Y613750D01*
X300750D01*
Y626750D01*
X286750D01*
Y623819D01*
X283000D01*
Y627000D01*
D02*
G37*
G36*
X177290Y619250D02*
X170750D01*
Y613210D01*
X177290D01*
Y619250D01*
D02*
G37*
G36*
X110998Y613750D02*
X101458D01*
Y604210D01*
X110998D01*
Y613750D01*
D02*
G37*
G36*
X72538D02*
X62998D01*
Y604210D01*
X72538D01*
Y613750D01*
D02*
G37*
G36*
X309750Y619250D02*
X303210D01*
Y613210D01*
X309750D01*
Y619250D01*
D02*
G37*
G36*
X122538Y613750D02*
X112998D01*
Y604210D01*
X122538D01*
Y613750D01*
D02*
G37*
G36*
X416998Y587190D02*
X407458D01*
Y577650D01*
X416998D01*
Y587190D01*
D02*
G37*
G36*
X110998Y549090D02*
X101458D01*
Y539550D01*
X110998D01*
Y549090D01*
D02*
G37*
G36*
X72538D02*
X62998D01*
Y539550D01*
X72538D01*
Y549090D01*
D02*
G37*
G36*
X427998Y548550D02*
X407998D01*
Y545611D01*
X377998D01*
Y548550D01*
X357998D01*
Y536819D01*
X331500D01*
Y540001D01*
X317500D01*
Y526501D01*
X331500D01*
Y529682D01*
X357998D01*
Y528550D01*
X377998D01*
Y531490D01*
X407998D01*
Y528550D01*
X427998D01*
Y548550D01*
D02*
G37*
G36*
X122538Y549090D02*
X112998D01*
Y539550D01*
X122538D01*
Y549090D01*
D02*
G37*
G36*
X110998Y537550D02*
X101458D01*
Y528010D01*
X110998D01*
Y537550D01*
D02*
G37*
G36*
X72538D02*
X62998D01*
Y528010D01*
X72538D01*
Y537550D01*
D02*
G37*
G36*
X60998Y549090D02*
X51458D01*
Y539550D01*
X60998D01*
Y549090D01*
D02*
G37*
G36*
X122538Y537550D02*
X112998D01*
Y528010D01*
X122538D01*
Y537550D01*
D02*
G37*
G36*
X428538Y575650D02*
X418998D01*
Y566110D01*
X428538D01*
Y575650D01*
D02*
G37*
G36*
X416998D02*
X407458D01*
Y566110D01*
X416998D01*
Y575650D01*
D02*
G37*
G36*
X378538Y587190D02*
X368998D01*
Y577650D01*
X378538D01*
Y587190D01*
D02*
G37*
G36*
X366998D02*
X357458D01*
Y577650D01*
X366998D01*
Y587190D01*
D02*
G37*
G36*
X265000Y574618D02*
X262659Y574152D01*
X260674Y572826D01*
X259348Y570841D01*
X258882Y568500D01*
X259348Y566159D01*
X260674Y564174D01*
X262659Y562848D01*
X265000Y562382D01*
X267341Y562848D01*
X269326Y564174D01*
X269832Y564931D01*
X271998D01*
Y563500D01*
X298998D01*
Y573500D01*
X271998D01*
Y572069D01*
X269832D01*
X269326Y572826D01*
X267341Y574152D01*
X265000Y574618D01*
D02*
G37*
G36*
X308500Y580118D02*
X306159Y579652D01*
X304174Y578326D01*
X302848Y576342D01*
X302382Y574000D01*
X302848Y571659D01*
X304174Y569675D01*
X304487Y569466D01*
X304118Y568251D01*
X301500D01*
Y560819D01*
X286948D01*
X286855Y560800D01*
X271998D01*
Y550800D01*
X298998D01*
Y553681D01*
X304249D01*
X305615Y553953D01*
X306773Y554727D01*
X306773Y554727D01*
X306773Y554727D01*
X306797Y554751D01*
X315500D01*
Y568251D01*
X312882D01*
X312513Y569466D01*
X312826Y569675D01*
X314152Y571659D01*
X314617Y574000D01*
X314152Y576342D01*
X312826Y578326D01*
X310841Y579652D01*
X308500Y580118D01*
D02*
G37*
G36*
X378538Y575650D02*
X368998D01*
Y566110D01*
X378538D01*
Y575650D01*
D02*
G37*
G36*
X366998D02*
X357458D01*
Y566110D01*
X366998D01*
Y575650D01*
D02*
G37*
G36*
X60998Y625290D02*
X51458D01*
Y615750D01*
X60998D01*
Y625290D01*
D02*
G37*
G36*
X227000Y627000D02*
X213000D01*
Y613500D01*
X227000D01*
Y615140D01*
X228174Y615924D01*
X230159Y614598D01*
X232500Y614132D01*
X234841Y614598D01*
X236826Y615924D01*
X238152Y617909D01*
X238617Y620250D01*
X238152Y622591D01*
X236826Y624576D01*
X234841Y625902D01*
X232500Y626367D01*
X230159Y625902D01*
X228174Y624576D01*
X227000Y625360D01*
Y627000D01*
D02*
G37*
G36*
X122538Y625290D02*
X112998D01*
Y615750D01*
X122538D01*
Y625290D01*
D02*
G37*
G36*
X110998D02*
X101458D01*
Y615750D01*
X110998D01*
Y625290D01*
D02*
G37*
G36*
X72538D02*
X62998D01*
Y615750D01*
X72538D01*
Y625290D01*
D02*
G37*
G36*
X427998Y624750D02*
X407998D01*
Y621811D01*
X377998D01*
Y624750D01*
X357998D01*
Y604750D01*
X361044D01*
X361530Y603577D01*
X326203Y568251D01*
X317500D01*
Y554751D01*
X331500D01*
Y563454D01*
X370522Y602475D01*
X371295Y603633D01*
X371517Y604750D01*
X377998D01*
Y607690D01*
X407998D01*
Y604750D01*
X427998D01*
Y624750D01*
D02*
G37*
G36*
X211000Y627000D02*
X197000D01*
Y623819D01*
X193750D01*
Y626750D01*
X179750D01*
Y613750D01*
X193750D01*
Y616681D01*
X197000D01*
Y613500D01*
X211000D01*
Y627000D01*
D02*
G37*
G36*
X267000Y627000D02*
X253000D01*
Y625360D01*
X251825Y624576D01*
X249841Y625902D01*
X247500Y626367D01*
X245159Y625902D01*
X243174Y624576D01*
X241848Y622591D01*
X241382Y620250D01*
X241848Y617909D01*
X243174Y615924D01*
X245159Y614598D01*
X247500Y614132D01*
X249841Y614598D01*
X251825Y615924D01*
X253000Y615140D01*
Y613500D01*
X267000D01*
Y627000D01*
D02*
G37*
G36*
X309750Y627290D02*
X303210D01*
Y621250D01*
X309750D01*
Y627290D01*
D02*
G37*
G36*
X318290D02*
X311750D01*
Y621250D01*
X318290D01*
Y627290D01*
D02*
G37*
G36*
X168750Y627290D02*
X162210D01*
Y621250D01*
X168750D01*
Y627290D01*
D02*
G37*
G36*
X177290D02*
X170750D01*
Y621250D01*
X177290D01*
Y627290D01*
D02*
G37*
%LPD*%
G36*
X134000Y352206D02*
X132827Y351720D01*
X118568Y365979D01*
X119896Y367710D01*
X120854Y370020D01*
X121180Y372500D01*
X120854Y374981D01*
X119896Y377291D01*
X118373Y379276D01*
X116389Y380799D01*
X114851Y381436D01*
X115099Y382681D01*
X134000D01*
Y352206D01*
D02*
G37*
G36*
X146998Y319501D02*
X167248D01*
Y313569D01*
X138000D01*
Y320682D01*
X146998D01*
Y319501D01*
D02*
G37*
G36*
X240181Y277081D02*
X239424Y276576D01*
X238098Y274591D01*
X237633Y272250D01*
X238098Y269909D01*
X238792Y268870D01*
X238194Y267750D01*
X236749D01*
Y254250D01*
X242531D01*
Y252500D01*
X241100D01*
Y243069D01*
X238400D01*
Y252500D01*
X235289D01*
Y253710D01*
X235289D01*
Y260000D01*
X220209D01*
Y254248D01*
X219876Y254110D01*
X218820Y254815D01*
Y288273D01*
X221547Y291000D01*
X240181D01*
Y277081D01*
D02*
G37*
G36*
X103088Y376779D02*
X102343Y374981D01*
X102016Y372500D01*
X102343Y370020D01*
X103300Y367710D01*
X104823Y365725D01*
X106807Y364202D01*
X109118Y363245D01*
X111525Y362928D01*
X134000Y340453D01*
Y331405D01*
X132827Y330919D01*
X120347Y343398D01*
X120854Y344621D01*
X121180Y347100D01*
X120854Y349580D01*
X119896Y351892D01*
X118373Y353876D01*
X116389Y355399D01*
X114078Y356356D01*
X111598Y356682D01*
X109118Y356356D01*
X106807Y355399D01*
X104823Y353876D01*
X103300Y351892D01*
X102343Y349580D01*
X102016Y347100D01*
X102343Y344621D01*
X103300Y342309D01*
X104823Y340325D01*
X106807Y338802D01*
X109118Y337845D01*
X111598Y337519D01*
X114078Y337845D01*
X115300Y338351D01*
X131925Y321727D01*
D01*
X131925D01*
Y321727D01*
D01*
X131925D01*
Y321727D01*
X131925D01*
X131925Y321727D01*
Y321727D01*
X131925Y321727D01*
Y321727D01*
X133082Y320953D01*
X134000Y320771D01*
Y313569D01*
X124776D01*
X120347Y317998D01*
X120854Y319221D01*
X121180Y321701D01*
X120854Y324180D01*
X119896Y326492D01*
X118373Y328476D01*
X116389Y329999D01*
X114078Y330956D01*
X111598Y331282D01*
X109118Y330956D01*
X106807Y329999D01*
X104823Y328476D01*
X103300Y326492D01*
X102343Y324180D01*
X102016Y321701D01*
X102343Y319221D01*
X103300Y316910D01*
X104823Y314925D01*
X106807Y313402D01*
X109118Y312445D01*
X111598Y312119D01*
X114078Y312445D01*
X115300Y312951D01*
X120775Y307477D01*
D01*
X120775D01*
Y307477D01*
D01*
X120775D01*
Y307477D01*
X120775D01*
X120775Y307477D01*
Y307477D01*
X120775Y307477D01*
Y307477D01*
X121932Y306703D01*
X123298Y306432D01*
X134000D01*
Y299869D01*
X120403D01*
X119896Y301091D01*
X118373Y303076D01*
X116389Y304599D01*
X114078Y305556D01*
X111598Y305882D01*
X109118Y305556D01*
X106807Y304599D01*
X104823Y303076D01*
X103300Y301091D01*
X102343Y298780D01*
X102016Y296301D01*
X102343Y293820D01*
X103300Y291509D01*
X104823Y289525D01*
X106807Y288002D01*
X109118Y287045D01*
X111598Y286719D01*
X114078Y287045D01*
X116389Y288002D01*
X118373Y289525D01*
X119896Y291509D01*
X120403Y292732D01*
X134000D01*
Y291000D01*
X172544D01*
X173030Y289827D01*
X157672Y274469D01*
X120403D01*
X119896Y275692D01*
X118373Y277676D01*
X116389Y279199D01*
X114078Y280156D01*
X111598Y280482D01*
X109118Y280156D01*
X106807Y279199D01*
X104823Y277676D01*
X103300Y275692D01*
X102343Y273381D01*
X102016Y270900D01*
X102343Y268421D01*
X103300Y266110D01*
X104823Y264125D01*
X106807Y262602D01*
X109118Y261645D01*
X111598Y261319D01*
X114078Y261645D01*
X116389Y262602D01*
X118373Y264125D01*
X119896Y266110D01*
X120403Y267332D01*
X159150D01*
X160516Y267604D01*
X161674Y268377D01*
X184297Y291000D01*
X189544D01*
X190030Y289827D01*
X139453Y239250D01*
X130750D01*
Y225750D01*
X134181D01*
Y193028D01*
X109668Y168514D01*
X107941Y169230D01*
X105200Y169591D01*
X102459Y169230D01*
X99905Y168172D01*
X97711Y166489D01*
X96028Y164295D01*
X94970Y161741D01*
X94609Y159000D01*
X94970Y156259D01*
X96028Y153705D01*
X97711Y151511D01*
X99905Y149828D01*
X102459Y148770D01*
X105200Y148409D01*
X107941Y148770D01*
X110495Y149828D01*
X112689Y151511D01*
X114372Y153705D01*
X115430Y156259D01*
X115790Y159000D01*
X115430Y161741D01*
X114714Y163468D01*
X140273Y189027D01*
X141047Y190185D01*
X141319Y191550D01*
X141319Y191550D01*
X141319Y191550D01*
Y191550D01*
Y225750D01*
X144750D01*
Y234453D01*
X145577Y235280D01*
X146750Y234794D01*
Y225750D01*
X150182D01*
Y184728D01*
X110772Y145319D01*
X49478D01*
X47470Y147327D01*
X47956Y148500D01*
X64900D01*
Y164453D01*
X69773Y169327D01*
X70547Y170485D01*
X70819Y171850D01*
Y176881D01*
X72021Y177289D01*
X72311Y176911D01*
X74505Y175228D01*
X77059Y174170D01*
X79800Y173809D01*
X82541Y174170D01*
X85095Y175228D01*
X87289Y176911D01*
X87729Y177485D01*
X88931Y177077D01*
Y173178D01*
X84268Y168514D01*
X82541Y169230D01*
X79800Y169591D01*
X77059Y169230D01*
X74505Y168172D01*
X72311Y166489D01*
X70628Y164295D01*
X69570Y161741D01*
X69209Y159000D01*
X69570Y156259D01*
X70628Y153705D01*
X72311Y151511D01*
X74505Y149828D01*
X77059Y148770D01*
X79800Y148409D01*
X82541Y148770D01*
X85095Y149828D01*
X87289Y151511D01*
X88972Y153705D01*
X90030Y156259D01*
X90390Y159000D01*
X90030Y161741D01*
X89314Y163468D01*
X95023Y169177D01*
X95797Y170334D01*
X96069Y171700D01*
Y176189D01*
X97271Y176598D01*
X97326Y176526D01*
X99632Y174757D01*
X102318Y173644D01*
X104200Y173396D01*
Y184400D01*
Y195404D01*
X102318Y195156D01*
X99632Y194043D01*
X97326Y192274D01*
X97271Y192202D01*
X96069Y192610D01*
Y371522D01*
X102032Y377485D01*
X103088Y376779D01*
D02*
G37*
G36*
X305509Y408797D02*
X303723Y407427D01*
X302200Y405442D01*
X301243Y403131D01*
X300916Y400651D01*
X301243Y398171D01*
X301749Y396949D01*
X289869Y385069D01*
X243498D01*
X243155Y385000D01*
X232748D01*
Y394204D01*
X246523Y407979D01*
X247297Y409137D01*
X247468Y410000D01*
X252931D01*
Y399581D01*
X252174Y399075D01*
X250848Y397090D01*
X250382Y394749D01*
X250848Y392408D01*
X252174Y390424D01*
X254159Y389098D01*
X256500Y388632D01*
X258841Y389098D01*
X260826Y390424D01*
X262152Y392408D01*
X262617Y394749D01*
X262152Y397090D01*
X260826Y399075D01*
X260068Y399581D01*
Y410000D01*
X305101D01*
X305509Y408797D01*
D02*
G37*
G36*
X134000Y389819D02*
X105750D01*
X104384Y389547D01*
X103227Y388773D01*
X89977Y375523D01*
X89203Y374366D01*
X88931Y373000D01*
Y191723D01*
X87729Y191315D01*
X87289Y191889D01*
X85095Y193572D01*
X83368Y194287D01*
Y371572D01*
X117228Y405431D01*
X134000D01*
Y389819D01*
D02*
G37*
G36*
X336250Y383953D02*
Y377500D01*
X350710D01*
X350710Y376960D01*
X350710D01*
X350710Y375790D01*
D01*
X350710Y375250D01*
X336250D01*
Y367297D01*
X324373Y355420D01*
X319303D01*
X318796Y356642D01*
X317274Y358627D01*
X315289Y360149D01*
X312978Y361107D01*
X310498Y361433D01*
X308018Y361107D01*
X306796Y360600D01*
X291873Y375523D01*
X290715Y376297D01*
X289349Y376569D01*
X252998D01*
Y377000D01*
Y377931D01*
X291347D01*
X292712Y378203D01*
X293870Y378977D01*
X306796Y391902D01*
X308018Y391396D01*
X310498Y391069D01*
X312978Y391396D01*
X315289Y392353D01*
X317274Y393876D01*
X318796Y395860D01*
X319303Y397083D01*
X323121D01*
X336250Y383953D01*
D02*
G37*
G36*
X167248Y394204D02*
Y385000D01*
X152296D01*
X148523Y388773D01*
X147366Y389547D01*
X146000Y389819D01*
X138000D01*
Y393568D01*
X139174Y393924D01*
X141159Y392598D01*
X143500Y392132D01*
X145841Y392598D01*
X147826Y393924D01*
X148332Y394681D01*
X166770D01*
X167248Y394204D01*
D02*
G37*
G36*
Y299869D02*
X138000D01*
Y306432D01*
X167248D01*
Y299869D01*
D02*
G37*
G36*
X231498Y375500D02*
Y369000D01*
Y367819D01*
X201478D01*
X198774Y370523D01*
X199117Y372250D01*
X198652Y374591D01*
X197325Y376576D01*
X195341Y377902D01*
X193000Y378368D01*
X190659Y377902D01*
X188674Y376576D01*
X188168Y375819D01*
X168498D01*
Y383750D01*
X231498D01*
Y375500D01*
D02*
G37*
G36*
X211568Y289774D02*
X211683Y289727D01*
Y252500D01*
X211683Y252500D01*
X211683D01*
X211954Y251134D01*
X212728Y249976D01*
X215700Y247005D01*
Y227257D01*
X214526Y226770D01*
X205819Y235478D01*
Y285522D01*
X210319Y290023D01*
X211568Y289774D01*
D02*
G37*
G36*
X198681Y286725D02*
Y234000D01*
X198681Y234000D01*
X198681D01*
X198953Y232634D01*
X199727Y231477D01*
X210727Y220477D01*
X210727Y220477D01*
X210727D01*
X210727Y220477D01*
X210727D01*
X210727Y220477D01*
Y220477D01*
Y220477D01*
D01*
D01*
X210727D01*
Y220477D01*
X211884Y219703D01*
X213250Y219431D01*
X217225D01*
X217711Y218258D01*
X211750Y212297D01*
X189023Y235023D01*
X187866Y235797D01*
X186500Y236069D01*
X160750D01*
Y239250D01*
X151206D01*
X150720Y240423D01*
X197508Y287211D01*
X198681Y286725D01*
D02*
G37*
G36*
X208181Y205772D02*
Y173499D01*
X208181Y173499D01*
X208181D01*
X208245Y173178D01*
X208249Y173157D01*
Y163250D01*
X222249D01*
Y176750D01*
X222250D01*
Y177062D01*
X223148Y177960D01*
X224249D01*
Y176750D01*
X224249D01*
Y163250D01*
X227681D01*
Y161000D01*
X224251D01*
Y152296D01*
X223424Y151470D01*
X222250Y151956D01*
Y161000D01*
X208251D01*
Y154489D01*
X190599Y136838D01*
X46150D01*
X44890Y138098D01*
X45696Y139080D01*
X46634Y138453D01*
X48000Y138181D01*
X112250D01*
X113616Y138453D01*
X114773Y139227D01*
X114773Y139227D01*
X114773Y139227D01*
X156273Y180727D01*
X157047Y181884D01*
X157319Y183250D01*
X157319Y183250D01*
X157319Y183250D01*
Y183250D01*
Y225750D01*
X160750D01*
Y228931D01*
X185022D01*
X208181Y205772D01*
D02*
G37*
G36*
X370000Y335000D02*
X271000D01*
Y295000D01*
X247169D01*
X247046Y295615D01*
X246273Y296772D01*
X232748Y310297D01*
Y319501D01*
X252808D01*
X254159Y318598D01*
X256500Y318132D01*
X258841Y318598D01*
X260826Y319924D01*
X262152Y321909D01*
X262617Y324250D01*
X262152Y326591D01*
X260826Y328576D01*
X258841Y329902D01*
X256500Y330368D01*
X254159Y329902D01*
X254118Y329875D01*
X252998Y330473D01*
Y334961D01*
X253538D01*
Y339250D01*
X230958D01*
Y334961D01*
X231498D01*
Y327500D01*
Y320750D01*
X168498D01*
Y327500D01*
Y335500D01*
Y342961D01*
X169038D01*
Y347250D01*
X146458D01*
Y342961D01*
X146998D01*
Y339208D01*
X145825Y338722D01*
X138000Y346547D01*
Y382681D01*
X144522D01*
X146998Y380205D01*
Y375500D01*
Y367500D01*
Y359501D01*
Y353540D01*
X146458D01*
Y349250D01*
X169038D01*
Y353540D01*
X168498D01*
Y359501D01*
Y367500D01*
Y368682D01*
X188168D01*
X188674Y367924D01*
X190659Y366598D01*
X193000Y366133D01*
X193059Y366144D01*
X197476Y361727D01*
X198634Y360953D01*
X200000Y360682D01*
X230958D01*
Y357250D01*
X242248D01*
Y355250D01*
X230958D01*
Y350961D01*
X231498D01*
Y345540D01*
X230958D01*
Y341250D01*
X253538D01*
Y342001D01*
X254748D01*
Y342001D01*
X269208D01*
Y341461D01*
X276248D01*
Y348751D01*
X277248D01*
Y349751D01*
X285288D01*
Y356041D01*
D01*
Y356041D01*
X285288Y356041D01*
Y356461D01*
X285288D01*
Y362751D01*
X277248D01*
Y364751D01*
X285288D01*
Y369431D01*
X287871D01*
X301749Y355554D01*
X301243Y354331D01*
X300916Y351851D01*
X301243Y349371D01*
X302200Y347060D01*
X303723Y345076D01*
X305707Y343553D01*
X308018Y342596D01*
X310498Y342269D01*
X312978Y342596D01*
X315289Y343553D01*
X317274Y345076D01*
X318796Y347060D01*
X319303Y348283D01*
X325851D01*
X327217Y348554D01*
X328375Y349328D01*
X340797Y361750D01*
X350710D01*
Y361210D01*
X357750D01*
Y368500D01*
X358750D01*
Y369500D01*
X366790D01*
Y375790D01*
D01*
Y375790D01*
X366790Y375790D01*
Y376960D01*
X366790D01*
Y383250D01*
X358750D01*
Y384250D01*
X357750D01*
Y391540D01*
X350710D01*
Y391000D01*
X339296D01*
X335470Y394827D01*
X335956Y396000D01*
X370000D01*
Y335000D01*
D02*
G37*
%LPC*%
G36*
X366790Y391540D02*
X359750D01*
Y385250D01*
X366790D01*
Y391540D01*
D02*
G37*
G36*
X111598Y255082D02*
X109118Y254756D01*
X106807Y253799D01*
X104823Y252276D01*
X103300Y250292D01*
X102343Y247980D01*
X102016Y245501D01*
X102343Y243020D01*
X103300Y240709D01*
X104823Y238725D01*
X106807Y237202D01*
X109118Y236245D01*
X111598Y235919D01*
X114078Y236245D01*
X116389Y237202D01*
X118373Y238725D01*
X119896Y240709D01*
X120854Y243020D01*
X121180Y245501D01*
X120854Y247980D01*
X119896Y250292D01*
X118373Y252276D01*
X116389Y253799D01*
X114078Y254756D01*
X111598Y255082D01*
D02*
G37*
G36*
X116203Y183400D02*
X106200D01*
Y173396D01*
X108082Y173644D01*
X110767Y174757D01*
X113074Y176526D01*
X114843Y178832D01*
X115956Y181518D01*
X116203Y183400D01*
D02*
G37*
G36*
X106200Y195404D02*
Y185400D01*
X116203D01*
X115956Y187282D01*
X114843Y189968D01*
X113074Y192274D01*
X110767Y194043D01*
X108082Y195156D01*
X106200Y195404D01*
D02*
G37*
G36*
X235289Y268290D02*
X228749D01*
Y262000D01*
X235289D01*
Y268290D01*
D02*
G37*
G36*
X285288Y347751D02*
X278248D01*
Y341461D01*
X285288D01*
Y347751D01*
D02*
G37*
G36*
X366790Y367500D02*
X359750D01*
Y361210D01*
X366790D01*
Y367500D01*
D02*
G37*
G36*
X226749Y268290D02*
X220209D01*
Y262000D01*
X226749D01*
Y268290D01*
D02*
G37*
%LPD*%
D10*
X285498Y479600D02*
D03*
Y492300D02*
D03*
Y505000D02*
D03*
Y517700D02*
D03*
Y530400D02*
D03*
Y543100D02*
D03*
Y555800D02*
D03*
Y568500D02*
D03*
Y581200D02*
D03*
Y593900D02*
D03*
X194498Y479600D02*
D03*
Y492300D02*
D03*
Y505000D02*
D03*
Y517700D02*
D03*
Y530400D02*
D03*
Y543100D02*
D03*
Y555800D02*
D03*
Y568500D02*
D03*
Y581200D02*
D03*
Y593900D02*
D03*
D11*
X171500Y505000D02*
D03*
X155500D02*
D03*
X171500Y533250D02*
D03*
X155500D02*
D03*
X171500Y561500D02*
D03*
X155500D02*
D03*
X171500Y589750D02*
D03*
X155500D02*
D03*
X308500Y589751D02*
D03*
X324500D02*
D03*
X308500Y561501D02*
D03*
X324500D02*
D03*
X308500Y533251D02*
D03*
X324500D02*
D03*
X308500Y505000D02*
D03*
X324500D02*
D03*
X215250Y170000D02*
D03*
X231249D02*
D03*
X243749Y261000D02*
D03*
X227749D02*
D03*
X248500Y170000D02*
D03*
X264499D02*
D03*
X276999Y261000D02*
D03*
X260999D02*
D03*
X215250Y154250D02*
D03*
X231250D02*
D03*
X153750Y232500D02*
D03*
X137750D02*
D03*
X260000Y620250D02*
D03*
X276000D02*
D03*
X260000Y652250D02*
D03*
X276000D02*
D03*
X220000Y716250D02*
D03*
X204000D02*
D03*
X220000Y684250D02*
D03*
X204000D02*
D03*
X220000Y652250D02*
D03*
X204000D02*
D03*
X220000Y620250D02*
D03*
X204000D02*
D03*
X260000Y716250D02*
D03*
X276000D02*
D03*
X260000Y684250D02*
D03*
X276000D02*
D03*
D12*
X262248Y363751D02*
D03*
X277248D02*
D03*
X262248Y348751D02*
D03*
X277248D02*
D03*
X204248Y461500D02*
D03*
X189248D02*
D03*
X343750Y384250D02*
D03*
X358750D02*
D03*
X343750Y368500D02*
D03*
X358750Y368500D02*
D03*
D13*
X309000Y470750D02*
D03*
Y486750D02*
D03*
X148749Y80748D02*
D03*
Y64748D02*
D03*
X333999Y80748D02*
D03*
Y64748D02*
D03*
X172498Y470750D02*
D03*
Y486750D02*
D03*
D14*
X220700Y191500D02*
D03*
X233400D02*
D03*
X246100D02*
D03*
X258800D02*
D03*
X220700Y239500D02*
D03*
X233400D02*
D03*
X246100D02*
D03*
X258800D02*
D03*
D15*
X274749Y228000D02*
D03*
Y213000D02*
D03*
X319750Y276752D02*
D03*
Y291752D02*
D03*
X339750Y276752D02*
D03*
Y291752D02*
D03*
D16*
X322000Y233500D02*
D03*
Y171500D02*
D03*
D17*
X333999Y30247D02*
D03*
Y47247D02*
D03*
X148749Y30247D02*
D03*
Y47247D02*
D03*
D18*
X339750Y258000D02*
D03*
X319750D02*
D03*
D19*
X409750Y254248D02*
D03*
X363750Y254248D02*
D03*
D20*
X386750Y188248D02*
D03*
D21*
X438000Y245999D02*
D03*
X438000Y215499D02*
D03*
D22*
X227998Y310000D02*
D03*
X219998D02*
D03*
X211998D02*
D03*
X203998D02*
D03*
X195998D02*
D03*
X187998D02*
D03*
X179998D02*
D03*
X171998D02*
D03*
Y394500D02*
D03*
X179998D02*
D03*
X187998D02*
D03*
X195998D02*
D03*
X203998D02*
D03*
X211998D02*
D03*
X219998D02*
D03*
X227998D02*
D03*
D23*
X157748Y324250D02*
D03*
Y332250D02*
D03*
Y340250D02*
D03*
Y348250D02*
D03*
Y356250D02*
D03*
Y364250D02*
D03*
Y372250D02*
D03*
Y380250D02*
D03*
X242248D02*
D03*
Y372250D02*
D03*
Y364250D02*
D03*
Y356250D02*
D03*
Y348250D02*
D03*
Y340250D02*
D03*
Y332250D02*
D03*
Y324250D02*
D03*
D24*
X383860Y133750D02*
D03*
X338140Y133750D02*
D03*
D25*
X293750Y620250D02*
D03*
X310750D02*
D03*
X293250Y652250D02*
D03*
X310250D02*
D03*
X186750Y716250D02*
D03*
X169750D02*
D03*
X186750Y684250D02*
D03*
X169750D02*
D03*
X186750Y652250D02*
D03*
X169750D02*
D03*
X186750Y620250D02*
D03*
X169750D02*
D03*
X293250Y716250D02*
D03*
X310250D02*
D03*
X293250Y684250D02*
D03*
X310250D02*
D03*
D26*
X200000Y364250D02*
X242248D01*
X192000Y372250D02*
X200000Y364250D01*
X157748Y372250D02*
X192000D01*
X229750Y356250D02*
X242248D01*
X225000Y351500D02*
X229750Y356250D01*
X229750Y340250D02*
X242248D01*
X225000Y345000D02*
X229750Y340250D01*
X147250Y332250D02*
X157748D01*
X111598Y367902D02*
X147250Y332250D01*
X111598Y367902D02*
Y372500D01*
X231000Y417250D02*
Y517250D01*
X219998Y406248D02*
X231000Y417250D01*
X219998Y394500D02*
Y406248D01*
X277000Y339000D02*
X337750D01*
X243499D02*
X277000D01*
X277248Y339248D02*
Y348751D01*
X277000Y339000D02*
X277248Y339248D01*
X337750Y339000D02*
X358750Y360000D01*
X242248Y340250D02*
X243499Y339000D01*
X285498Y467100D02*
Y479600D01*
X159998Y486750D02*
X172498D01*
X203998Y404750D02*
X210248Y411000D01*
X203998Y394500D02*
Y404750D01*
X195998Y407750D02*
X199248Y411000D01*
X195998Y394500D02*
Y407750D01*
X309000Y458250D02*
Y470750D01*
X274749Y228000D02*
Y239248D01*
X308000Y233500D02*
X322000D01*
X304499D02*
X308000D01*
X276999Y261000D02*
X304499Y233500D01*
X287500Y213000D02*
X308000Y233500D01*
X274749Y213000D02*
X287500D01*
X256500Y510750D02*
X274950Y492300D01*
X159150Y270900D02*
X187998Y299748D01*
X111598Y270900D02*
X159150D01*
X187998Y299748D02*
Y310000D01*
X111598Y296301D02*
X175800D01*
X179998Y300498D01*
Y310000D01*
X220700Y239500D02*
Y247052D01*
X215251Y252500D02*
X220700Y247052D01*
X227749Y261000D02*
Y272248D01*
X258800Y239500D02*
Y258800D01*
X260999Y261000D01*
X246100Y239500D02*
Y258650D01*
X243749Y261000D02*
X246100Y258650D01*
X285498Y505000D02*
X308500D01*
X285498Y568500D02*
X285498Y568500D01*
X265000Y568500D02*
X285498D01*
X265000Y543100D02*
X285498D01*
X194498D02*
X205150D01*
X274800Y517700D02*
X285498D01*
X265000Y527500D02*
X274800Y517700D01*
X265000Y527500D02*
Y529500D01*
X205000Y568500D02*
X244000Y529500D01*
X205150Y543100D02*
X231000Y517250D01*
X274950Y492300D02*
X285498D01*
X256500Y510750D02*
Y541750D01*
X204350Y593900D02*
X256500Y541750D01*
X194498Y568500D02*
X205000D01*
X205050Y517700D02*
X217750Y505000D01*
X194498Y517700D02*
X205050D01*
X341000Y384250D02*
X343750D01*
X324599Y400651D02*
X341000Y384250D01*
X310498Y400651D02*
X324599D01*
X342500Y368500D02*
X343750D01*
X325851Y351851D02*
X342500Y368500D01*
X310498Y351851D02*
X325851D01*
X111598Y347100D02*
X134448Y324250D01*
X157748D01*
X111598Y321701D02*
X123298Y310000D01*
X171998D01*
X233400Y172150D02*
Y191500D01*
X231249Y170000D02*
X233400Y172150D01*
X246100Y172400D02*
Y191500D01*
Y172400D02*
X248500Y170000D01*
X246000Y239600D02*
X246100Y239500D01*
X233400D02*
X246100D01*
X277248Y348751D02*
Y363751D01*
X358750Y368500D02*
Y384250D01*
Y360000D02*
Y368500D01*
X242748Y363751D02*
X262248D01*
X242248Y364250D02*
X242748Y363751D01*
X242748Y348751D02*
X262248D01*
X242248Y348250D02*
X242748Y348751D01*
X174349Y530400D02*
X194498D01*
X171500Y533250D02*
X174349Y530400D01*
X171500Y505000D02*
X194498D01*
X171500Y505000D02*
X171500Y505000D01*
X172498Y470750D02*
X185648D01*
X189248Y474350D01*
X180000Y404000D02*
X217750Y441750D01*
Y505000D01*
X172498Y486750D02*
X176498Y490750D01*
X192948D01*
X194498Y492300D01*
X256500Y394749D02*
Y510750D01*
X244000Y410502D02*
Y529500D01*
X227998Y394500D02*
X244000Y410502D01*
X127148Y561500D02*
X155500D01*
X111998Y576650D02*
X127148Y561500D01*
X144797Y533250D02*
X155500D01*
X111998Y500450D02*
X144797Y533250D01*
X324500Y533251D02*
X362699D01*
X367998Y538550D01*
X324500Y505000D02*
X367150Y462350D01*
X367998D01*
X285498Y479600D02*
X286898Y481000D01*
X301500D01*
X307250Y486750D01*
X309000D01*
X285498Y581200D02*
X286798Y582500D01*
X301249D01*
X308500Y589751D01*
X285498Y555800D02*
X286948Y557250D01*
X304249D01*
X308500Y561501D01*
X285498Y530400D02*
X285898Y530000D01*
X305249D01*
X308500Y533251D01*
X171500Y589750D02*
X178500Y582750D01*
X192948D01*
X194498Y581200D01*
X171500Y561500D02*
X175749Y557250D01*
X193048D01*
X194498Y555800D01*
X324500Y589751D02*
Y647452D01*
X367998Y690950D01*
X111998Y652850D02*
X155500Y609348D01*
Y589750D02*
Y609348D01*
X220000Y716250D02*
X232500D01*
X220000Y684250D02*
X232500D01*
X220000Y652250D02*
X232500D01*
X220000Y620250D02*
X232500D01*
X171500Y589750D02*
Y602250D01*
Y561500D02*
Y574000D01*
Y533250D02*
Y545750D01*
Y505000D02*
Y517500D01*
X275800Y581200D02*
X285498D01*
X247500Y684250D02*
X260000D01*
X247500Y716250D02*
X260000D01*
X186750Y716250D02*
X204000D01*
X186750Y684250D02*
X204000D01*
X186750Y684250D02*
X186750Y684250D01*
X186750Y652250D02*
X204000D01*
X186750Y652250D02*
X186750Y652250D01*
X186750Y620250D02*
X204000D01*
X186750Y620250D02*
X186750Y620250D01*
X324500Y561501D02*
X367998Y604999D01*
Y614750D01*
X242249Y324250D02*
X256500D01*
X242248Y324250D02*
X242249Y324250D01*
X204248Y449000D02*
Y461500D01*
X227998Y310000D02*
X243749Y294249D01*
X258800Y229550D02*
Y239500D01*
X157748Y348250D02*
X225000D01*
X79800Y159000D02*
X92500Y171700D01*
Y373000D01*
X79800Y184400D02*
Y373050D01*
X115750Y409000D01*
X175000D01*
X180000Y404000D01*
X54400Y159000D02*
X67250Y171850D01*
Y398250D01*
X143500Y398250D02*
X168249D01*
X171998Y394500D01*
X231249Y154251D02*
Y170000D01*
Y154251D02*
X231250Y154250D01*
X192251Y115250D02*
X231250Y154250D01*
X182649Y115250D02*
X192251D01*
X220749D02*
X248500Y143001D01*
Y170000D01*
X258800Y197050D02*
X274749Y213000D01*
X258800Y191500D02*
Y197050D01*
X211750Y173499D02*
X215250Y170000D01*
X271499Y216250D02*
X274749Y213000D01*
X211750Y173499D02*
Y207250D01*
X220750Y216250D01*
X271499D01*
X220700Y191500D02*
Y202449D01*
X226761Y208510D01*
X213250Y223000D02*
X252250D01*
X258800Y229550D01*
X105200Y159000D02*
X137750Y191550D01*
Y232500D01*
X153750D02*
X186500D01*
X211750Y207250D01*
X137750Y232500D02*
X202750Y297500D01*
Y308752D01*
X203998Y310000D01*
X215251Y252500D02*
Y289751D01*
X219998Y294498D01*
Y310000D01*
X211998Y296748D02*
Y310000D01*
X319750Y276752D02*
X319750Y276752D01*
X339749Y291752D02*
X339750Y291752D01*
X152000Y380250D02*
X157748D01*
X92500Y373000D02*
X105750Y386250D01*
X146000D01*
X152000Y380250D01*
X148749Y47247D02*
Y64748D01*
X333999Y47247D02*
Y64748D01*
X39750Y169750D02*
X54400Y184400D01*
X39750Y150000D02*
Y169750D01*
Y150000D02*
X48000Y141750D01*
X112250D01*
X153750Y183250D01*
Y232500D01*
X148749Y80748D02*
X148751Y80750D01*
X243749Y261000D02*
Y294249D01*
X148751Y80750D02*
Y93250D01*
X264499Y170000D02*
X320500D01*
X322000Y171500D01*
X333999Y80748D02*
Y93248D01*
X247500Y652250D02*
X260000D01*
X247500Y620250D02*
X260000D01*
X276000Y716250D02*
X293250D01*
X293250Y716250D01*
X276000Y684250D02*
X293250D01*
X293250Y684250D01*
X276000Y652250D02*
X293249D01*
X293250Y652250D01*
X276000Y620250D02*
X293750D01*
X293750Y620250D01*
X308500Y505000D02*
Y517500D01*
X308500Y533251D02*
Y545751D01*
Y561501D02*
Y574000D01*
X308500Y589751D02*
Y602250D01*
X262248Y348751D02*
Y363751D01*
X111998Y424250D02*
X139250Y451502D01*
Y488750D01*
X155500Y505000D01*
X202250Y234000D02*
X213250Y223000D01*
X202250Y234000D02*
Y287000D01*
X211998Y296748D01*
X225000Y345000D02*
Y348250D01*
Y351500D01*
X242248Y372250D02*
X242998Y373000D01*
X289349D01*
X310498Y351851D01*
X242248Y380250D02*
X243498Y381500D01*
X291347D01*
X310498Y400651D01*
D27*
X189248Y449000D02*
Y461500D01*
Y474350D01*
X194498Y479600D01*
X296949Y115250D02*
X315449Y133750D01*
X338140D01*
X383860Y133750D02*
X414250D01*
X459500Y179000D01*
X438000Y245999D02*
X441501D01*
X459500Y228000D01*
Y179000D02*
Y228000D01*
X417999Y245999D02*
X438000D01*
X409750Y254248D02*
X417999Y245999D01*
X359998Y258000D02*
X363750Y254248D01*
X339750Y258000D02*
X359998D01*
X339750D02*
Y276751D01*
X339750Y276752D02*
X339750Y276751D01*
X319750Y235750D02*
Y258000D01*
Y235750D02*
X322000Y233500D01*
X319750Y258000D02*
Y276752D01*
X319750Y291752D02*
X339749D01*
X214500Y154250D02*
X215250D01*
X32000Y242103D02*
X35398Y245501D01*
X32000Y144500D02*
Y242103D01*
Y144500D02*
X44250Y132250D01*
X192500D01*
X214500Y154250D01*
X307250Y258000D02*
X319750D01*
D28*
X61998Y652850D02*
X111998D01*
X61998Y576650D02*
X111998D01*
X61998Y500450D02*
X111998D01*
X61998Y424250D02*
X111998D01*
X367998Y462350D02*
X417998D01*
X367998Y538550D02*
X417998D01*
X367998Y614750D02*
X417998D01*
X367998Y690950D02*
X417998D01*
X182649Y65250D02*
Y115250D01*
X220749Y65250D02*
Y115250D01*
X258849Y65250D02*
Y115250D01*
X296949Y65250D02*
Y115250D01*
X61998Y690950D02*
X111998D01*
X61998Y614750D02*
X111998D01*
X61998Y538550D02*
X111998D01*
X61998Y462350D02*
X111998D01*
X367998Y652850D02*
X417998D01*
X367998Y576650D02*
X417998D01*
X367998Y500450D02*
X417998D01*
X367998Y424250D02*
X417998D01*
D29*
X62000Y780250D02*
D03*
X418000D02*
D03*
X417998Y90000D02*
D03*
X61998D02*
D03*
D30*
X111598Y296301D02*
D03*
Y270900D02*
D03*
Y245501D02*
D03*
X35398D02*
D03*
Y270900D02*
D03*
Y321701D02*
D03*
Y296301D02*
D03*
X111598Y321701D02*
D03*
Y372500D02*
D03*
X35398Y347100D02*
D03*
X111598D02*
D03*
X310498Y351851D02*
D03*
Y400651D02*
D03*
D31*
X35398Y372500D02*
D03*
D32*
X105200Y184400D02*
D03*
Y159000D02*
D03*
X54400Y184400D02*
D03*
X79800D02*
D03*
Y159000D02*
D03*
D33*
X54400D02*
D03*
D34*
X111998Y424250D02*
D03*
X61998D02*
D03*
X111998Y462350D02*
D03*
X61998D02*
D03*
X111998Y500450D02*
D03*
X61998D02*
D03*
X111998Y538550D02*
D03*
X61998D02*
D03*
X111998Y576650D02*
D03*
X61998D02*
D03*
X111998Y614750D02*
D03*
X61998D02*
D03*
X111998Y652850D02*
D03*
X61998D02*
D03*
X111998Y690950D02*
D03*
X61998D02*
D03*
X367998Y690950D02*
D03*
X417998D02*
D03*
X367998Y652850D02*
D03*
X417998D02*
D03*
X367998Y614750D02*
D03*
X417998D02*
D03*
X367998Y576650D02*
D03*
X417998D02*
D03*
X367998Y538550D02*
D03*
X417998D02*
D03*
X367998Y500450D02*
D03*
X417998D02*
D03*
X367998Y462350D02*
D03*
X417998D02*
D03*
X367998Y424250D02*
D03*
X417998D02*
D03*
D35*
X296949Y115250D02*
D03*
Y65250D02*
D03*
X258849Y115250D02*
D03*
Y65250D02*
D03*
X220749Y115250D02*
D03*
Y65250D02*
D03*
X182649Y115250D02*
D03*
Y65250D02*
D03*
D36*
X220000Y375000D02*
D03*
X285498Y467100D02*
D03*
X159998Y486750D02*
D03*
X210248Y411000D02*
D03*
X199248D02*
D03*
X221000Y329000D02*
D03*
X193000Y372250D02*
D03*
X309000Y458250D02*
D03*
X189248Y449000D02*
D03*
X274749Y239250D02*
D03*
X227749Y272250D02*
D03*
X265000Y568500D02*
D03*
X217750Y505000D02*
D03*
X231000Y517250D02*
D03*
X265000Y543100D02*
D03*
Y529500D02*
D03*
X410750Y164500D02*
D03*
X362000D02*
D03*
X410750Y212500D02*
D03*
X362000D02*
D03*
X386375Y164500D02*
D03*
Y212500D02*
D03*
X362000Y188500D02*
D03*
X410750D02*
D03*
X386375D02*
D03*
X244000Y529500D02*
D03*
X232500Y716250D02*
D03*
Y684250D02*
D03*
Y652250D02*
D03*
Y620250D02*
D03*
X171500Y602250D02*
D03*
Y574000D02*
D03*
Y545750D02*
D03*
Y517500D02*
D03*
X247500Y684250D02*
D03*
X256500Y394749D02*
D03*
X256500Y324250D02*
D03*
X204248Y449000D02*
D03*
X143500Y398250D02*
D03*
X67250Y398250D02*
D03*
X226761Y208510D02*
D03*
X243750Y272250D02*
D03*
X148751Y93250D02*
D03*
X307250Y258000D02*
D03*
X333999Y93248D02*
D03*
X247500Y716250D02*
D03*
Y652250D02*
D03*
Y620250D02*
D03*
X308500Y517500D02*
D03*
X308500Y545751D02*
D03*
Y574000D02*
D03*
X308500Y602250D02*
D03*
X310498Y376150D02*
D03*
X293250Y348750D02*
D03*
X276250Y394749D02*
D03*
X210500Y240752D02*
D03*
M02*
