%FSLAX44Y44*%
%MOMM*%
G71*
G01*
G75*
G04 Layer_Color=255*
%ADD10R,2.3000X0.6000*%
%ADD11R,1.0000X0.9500*%
%ADD12R,1.1000X0.9500*%
%ADD13R,0.9500X1.0000*%
%ADD14R,0.6000X2.2000*%
%ADD15R,0.9500X1.1000*%
%ADD16R,4.6500X2.3000*%
%ADD17R,0.9000X1.0000*%
%ADD18R,1.1000X1.3500*%
%ADD19R,1.6000X3.0000*%
%ADD20R,6.7000X6.7000*%
%ADD21R,1.9500X1.2500*%
%ADD22R,0.5500X1.7500*%
%ADD23R,1.7500X0.5500*%
%ADD24R,1.6000X1.8000*%
%ADD25R,1.0000X0.9000*%
%ADD26C,0.3000*%
%ADD27C,0.5000*%
%ADD28C,1.0000*%
%ADD29C,3.6000*%
%ADD30C,1.5000*%
%ADD31R,1.5000X1.5000*%
%ADD32C,1.7000*%
%ADD33R,1.7000X1.7000*%
%ADD34R,1.6000X1.6000*%
%ADD35R,1.6000X1.6000*%
%ADD36C,0.8000*%
D29*
X62000Y780250D02*
D03*
X418000D02*
D03*
X417998Y90000D02*
D03*
X61998D02*
D03*
D30*
X111598Y296301D02*
D03*
Y270900D02*
D03*
Y245501D02*
D03*
X35398D02*
D03*
Y270900D02*
D03*
Y321701D02*
D03*
Y296301D02*
D03*
X111598Y321701D02*
D03*
Y372500D02*
D03*
X35398Y347100D02*
D03*
X111598D02*
D03*
X310498Y351851D02*
D03*
Y400651D02*
D03*
D31*
X35398Y372500D02*
D03*
D32*
X105200Y184400D02*
D03*
Y159000D02*
D03*
X54400Y184400D02*
D03*
X79800D02*
D03*
Y159000D02*
D03*
D33*
X54400D02*
D03*
D34*
X111998Y424250D02*
D03*
X61998D02*
D03*
X111998Y462350D02*
D03*
X61998D02*
D03*
X111998Y500450D02*
D03*
X61998D02*
D03*
X111998Y538550D02*
D03*
X61998D02*
D03*
X111998Y576650D02*
D03*
X61998D02*
D03*
X111998Y614750D02*
D03*
X61998D02*
D03*
X111998Y652850D02*
D03*
X61998D02*
D03*
X111998Y690950D02*
D03*
X61998D02*
D03*
X367998Y690950D02*
D03*
X417998D02*
D03*
X367998Y652850D02*
D03*
X417998D02*
D03*
X367998Y614750D02*
D03*
X417998D02*
D03*
X367998Y576650D02*
D03*
X417998D02*
D03*
X367998Y538550D02*
D03*
X417998D02*
D03*
X367998Y500450D02*
D03*
X417998D02*
D03*
X367998Y462350D02*
D03*
X417998D02*
D03*
X367998Y424250D02*
D03*
X417998D02*
D03*
D35*
X296949Y115250D02*
D03*
Y65250D02*
D03*
X258849Y115250D02*
D03*
Y65250D02*
D03*
X220749Y115250D02*
D03*
Y65250D02*
D03*
X182649Y115250D02*
D03*
Y65250D02*
D03*
M02*
